<?xml version="1.0" encoding="utf-8"?>
<!-- Generator: Adobe Illustrator 27.5.0, SVG Export Plug-In . SVG Version: 6.00 Build 0)  -->
<svg version="1.1" xmlns="http://www.w3.org/2000/svg" xmlns:xlink="http://www.w3.org/1999/xlink" x="0px" y="0px"
	 viewBox="0 0 500 500" style="enable-background:new 0 0 500 500;" xml:space="preserve">
<g id="Floor">
	<path style="fill:#F5F5F5;" d="M97.748,412.848c84.087,43.927,220.419,43.929,304.505,0.001
		c84.087-43.929,84.087-115.149,0-159.077c-84.087-43.928-220.419-43.928-304.506-0.001C13.66,297.699,13.66,368.92,97.748,412.848z
		"/>
</g>
<g id="Shadow">
	<g id="XMLID_510_">
		<g id="XMLID_511_">
			<path style="fill:#EBEBEB;" d="M348.172,395.336c-17.929,8.546-46.998,8.546-64.927,0c-17.93-8.544-17.93-22.399,0-30.945
				c17.929-8.544,46.997-8.544,64.927,0C366.101,372.936,366.101,386.792,348.172,395.336z"/>
		</g>
	</g>
	<g id="XMLID_576_">
		<g id="XMLID_577_">
			<path style="fill:#EBEBEB;" d="M422.082,346.898c-13.832,6.593-36.257,6.593-50.089,0c-13.832-6.591-13.832-17.28,0-23.874
				c13.832-6.591,36.257-6.591,50.089,0C435.914,329.617,435.914,340.306,422.082,346.898z"/>
		</g>
	</g>
</g>
<g id="Plants">
	<g>
		<g>
			<g id="XMLID_73_">
				<path style="fill:#27DEBF;" d="M144.591,330.23c-2.042-10.56-9.325-25.612-18.248-33.988
					c-8.592-8.064-21.341-10.871-26.421-7.157c-5.079,3.715-1.75,11.763,8.11,21.562c11.124,11.055,32.495,41.714,36.557,59.087
					L144.591,330.23z"/>
			</g>
			<g id="XMLID_3_" style="opacity:0.2;">
				<path d="M144.591,330.23c-2.042-10.56-9.325-25.612-18.248-33.988c-8.592-8.064-21.341-10.871-26.421-7.157
					c-5.079,3.715-1.75,11.763,8.11,21.562c11.124,11.055,32.495,41.714,36.557,59.087L144.591,330.23z"/>
			</g>
		</g>
		<g id="XMLID_242_">
			<path style="fill:#FFFFFF;" d="M144.589,355.638c-0.255,0-0.473-0.194-0.497-0.453c-2.525-26.607-21.124-56.509-39.022-62.735
				c-0.261-0.091-0.399-0.376-0.308-0.637c0.091-0.262,0.377-0.397,0.636-0.309c18.541,6.45,37.087,36.164,39.689,63.587
				c0.026,0.274-0.175,0.519-0.45,0.545C144.621,355.637,144.605,355.638,144.589,355.638z"/>
		</g>
		<g id="XMLID_237_">
			<g id="XMLID_103_">
				<path style="fill:#27DEBF;" d="M144.59,382.487c0,0-3.459,2.764-15.009,1.682c-11.55-1.082-17.486-9.332-17.486-12.874
					c0-3.542,10.604-4.141,12.908-12.923c0,0-2.827,3.562-8.846,4.691s-10.815-0.791-12.185-11.727c0,0,4.074,0.795,8.822-0.73
					c4.748-1.526,5.879-4.133,4.635-4.695c-1.244-0.562-7.853,0.053-12.097-1.611s-0.953-23.688,1.777-25.264
					c2.73-1.576,15.931,2.134,18.491,4.114c2.28,1.763,5.477,4.81,3.958,11.263c0,0,2.393-2.014,3.973-5.879
					c1.242-3.038,2.136-2.301,4.02-1.16c1.884,1.141,3.944,3.212,4.389,6.015c0.445,2.803-0.276,12.463-4.22,15.601
					c0,0,3.781,0.484,6.87-5.902c0,0,6.031,2.421,7.357,6.346C153.272,353.36,154.854,372.533,144.59,382.487z"/>
			</g>
			<g id="XMLID_51_">
				<path style="fill:#FFFFFF;" d="M145.605,384.67c-0.249,0-0.465-0.185-0.496-0.439c-2.635-21.607-19.072-49.953-35.176-60.664
					c-0.23-0.152-0.292-0.463-0.14-0.693c0.154-0.23,0.464-0.292,0.693-0.139c16.308,10.846,32.95,39.525,35.614,61.375
					c0.034,0.274-0.162,0.523-0.436,0.557C145.646,384.669,145.625,384.67,145.605,384.67z"/>
			</g>
		</g>
	</g>
</g>
<g id="Device">
	<path style="fill:#E0E0E0;" d="M146.622,387.688c-1.122-0.648-2.031-2.292-2.031-3.673V145.112c0-1.381,0.969-3.06,2.165-3.75
		l150.026-86.618c1.196-0.69,3.074-0.725,4.196-0.077c1.122,0.648,2.031,2.292,2.031,3.673L150.818,387.611
		C149.622,388.301,147.743,388.336,146.622,387.688z"/>
	<g>
		<path style="fill:#37474F;" d="M148.651,149.648l60.932-39.869l-4.063-2.345l-58.764,33.928c-1.196,0.69-2.165,2.369-2.165,3.75
			v2.192L148.651,149.648z"/>
		<path style="opacity:0.2;fill:#37474F;" d="M148.651,149.648l60.932-39.869l-4.063-2.345l-58.764,33.928
			c-1.196,0.69-2.165,2.369-2.165,3.75v2.192L148.651,149.648z"/>
	</g>
	<g>
		<path style="fill:#263238;" d="M168.962,156.683l-23.737-13.705c-0.392,0.678-0.634,1.443-0.634,2.133v238.903
			c0,1.381,0.91,3.025,2.031,3.673c1.121,0.648,3,0.613,4.196-0.077l18.144-10.475L168.962,156.683z"/>
		<path style="opacity:0.4;fill:#263238;" d="M168.962,156.683l-23.737-13.705c-0.392,0.678-0.634,1.443-0.634,2.133v238.903
			c0,1.381,0.91,3.025,2.031,3.673c1.121,0.648,3,0.613,4.196-0.077l18.144-10.475L168.962,156.683z"/>
	</g>
	<g>
		<path style="fill:#455A64;" d="M150.818,387.611l150.027-86.618c1.196-0.69,2.165-2.369,2.165-3.75l-0.001-238.903
			c0-1.381-0.969-1.94-2.165-1.25l-150.027,86.618c-1.196,0.69-2.165,2.369-2.165,3.75l0.001,238.903
			C148.653,387.741,149.622,388.301,150.818,387.611z"/>
		<path style="opacity:0.1;fill:#455A64;" d="M150.818,387.611l150.027-86.618c1.196-0.69,2.165-2.369,2.165-3.75l-0.001-238.903
			c0-1.381-0.969-1.94-2.165-1.25l-150.027,86.618c-1.196,0.69-2.165,2.369-2.165,3.75l0.001,238.903
			C148.653,387.741,149.622,388.301,150.818,387.611z"/>
	</g>
	<path style="fill:#27DEBF;" d="M161.106,202.639l36.022-20.797c2.391-1.381,4.33-0.4,4.33,2.19c0,2.59-1.939,5.81-4.33,7.19
		l-36.022,20.797c-2.391,1.381-4.33,0.4-4.33-2.19C156.776,207.239,158.715,204.02,161.106,202.639z"/>
	<path style="fill:#27DEBF;" d="M161.106,217.398l23.836-13.762c2.391-1.381,4.33-0.4,4.33,2.19c0,2.59-1.939,5.81-4.33,7.19
		l-23.836,13.762c-2.391,1.381-4.33,0.4-4.33-2.19C156.776,221.998,158.715,218.778,161.106,217.398z"/>
	<path style="fill:#27DEBF;" d="M158.508,242.663l4.66-2.691c0.957-0.552,1.732-0.105,1.732,1v5.381c0,1.105-0.775,2.448-1.732,3
		l-4.66,2.69c-0.957,0.552-1.732,0.105-1.732-1v-5.381C156.776,244.559,157.552,243.216,158.508,242.663z"/>
	<path style="opacity:0.2;" d="M158.508,242.663l4.66-2.691c0.957-0.552,1.732-0.105,1.732,1v5.381c0,1.105-0.775,2.448-1.732,3
		l-4.66,2.69c-0.957,0.552-1.732,0.105-1.732-1v-5.381C156.776,244.559,157.552,243.216,158.508,242.663z"/>
	<g>
		<g>
			<path style="fill:#27DEBF;" d="M158.508,261.426l4.66-2.691c0.957-0.552,1.732-0.104,1.732,1v5.381c0,1.105-0.775,2.448-1.732,3
				l-4.66,2.69c-0.957,0.552-1.732,0.105-1.732-1v-5.381C156.776,263.322,157.552,261.978,158.508,261.426z"/>
		</g>
		<g style="opacity:0.2;">
			<path d="M158.508,261.426l4.66-2.691c0.957-0.552,1.732-0.104,1.732,1v5.381c0,1.105-0.775,2.448-1.732,3l-4.66,2.69
				c-0.957,0.552-1.732,0.105-1.732-1v-5.381C156.776,263.322,157.552,261.978,158.508,261.426z"/>
		</g>
	</g>
	<g>
		<path style="fill:#27DEBF;" d="M171.127,256.486l28.166-16.262c1.196-0.69,2.165-0.2,2.165,1.095c0,1.295-0.969,2.905-2.165,3.595
			l-28.166,16.262c-1.196,0.69-2.165,0.2-2.165-1.095C168.962,258.786,169.932,257.176,171.127,256.486z"/>
		<path style="opacity:0.2;" d="M171.127,256.486l28.166-16.262c1.196-0.69,2.165-0.2,2.165,1.095c0,1.295-0.969,2.905-2.165,3.595
			l-28.166,16.262c-1.196,0.69-2.165,0.2-2.165-1.095C168.962,258.786,169.932,257.176,171.127,256.486z"/>
	</g>
	<g>
		<path style="fill:#E0E0E0;" d="M158.508,280.187l4.66-2.691c0.957-0.552,1.732-0.105,1.732,1v5.381c0,1.104-0.775,2.448-1.732,3
			l-4.66,2.69c-0.957,0.552-1.732,0.104-1.732-1v-5.381C156.776,282.082,157.552,280.739,158.508,280.187z"/>
	</g>
	<g>
		<path style="fill:#F0F0F0;" d="M171.127,275.246l28.166-16.262c1.196-0.69,2.165-0.2,2.165,1.095c0,1.295-0.969,2.905-2.165,3.595
			l-28.166,16.262c-1.196,0.69-2.165,0.2-2.165-1.095C168.962,277.546,169.932,275.937,171.127,275.246z"/>
	</g>
	<g>
		<path style="fill:#E0E0E0;" d="M158.508,298.998l4.66-2.69c0.957-0.552,1.732-0.105,1.732,1v5.381c0,1.105-0.775,2.448-1.732,3
			l-4.66,2.69c-0.957,0.552-1.732,0.104-1.732-1v-5.381C156.776,300.893,157.552,299.55,158.508,298.998z"/>
	</g>
	<g>
		<path style="fill:#F0F0F0;" d="M171.127,294.057l28.166-16.262c1.196-0.69,2.165-0.2,2.165,1.095c0,1.295-0.969,2.905-2.165,3.595
			l-28.166,16.262c-1.196,0.69-2.165,0.2-2.165-1.095C168.962,296.357,169.932,294.747,171.127,294.057z"/>
	</g>
	<g>
		<path style="fill:#E0E0E0;" d="M158.508,317.758l4.66-2.691c0.957-0.552,1.732-0.105,1.732,1v5.381c0,1.105-0.775,2.448-1.732,3
			l-4.66,2.69c-0.957,0.552-1.732,0.105-1.732-1v-5.381C156.776,319.653,157.552,318.31,158.508,317.758z"/>
	</g>
	<g>
		<path style="fill:#F0F0F0;" d="M171.127,312.817l28.166-16.262c1.196-0.69,2.165-0.2,2.165,1.095c0,1.295-0.969,2.905-2.165,3.595
			l-28.166,16.262c-1.196,0.69-2.165,0.2-2.165-1.095C168.962,315.117,169.932,313.508,171.127,312.817z"/>
	</g>
	<g>
		<path style="fill:#27DEBF;" d="M158.942,336.222l20.042-11.571c1.196-0.69,2.165-0.2,2.165,1.095c0,1.295-0.969,2.905-2.165,3.595
			l-20.042,11.571c-1.196,0.69-2.165,0.2-2.165-1.095C156.777,338.522,157.746,336.913,158.942,336.222z"/>
	</g>
	<g>
		<path style="fill:#27DEBF;" d="M158.942,345.603l40.352-23.297c1.196-0.69,2.165-0.2,2.165,1.095c0,1.295-0.969,2.905-2.165,3.595
			l-40.352,23.297c-1.196,0.69-2.165,0.2-2.165-1.095C156.777,347.903,157.746,346.294,158.942,345.603z"/>
		<path style="opacity:0.8;fill:#FFFFFF;" d="M158.942,345.603l40.352-23.297c1.196-0.69,2.165-0.2,2.165,1.095
			c0,1.295-0.969,2.905-2.165,3.595l-40.352,23.297c-1.196,0.69-2.165,0.2-2.165-1.095
			C156.777,347.903,157.746,346.294,158.942,345.603z"/>
	</g>
	<g>
		<path style="fill:#27DEBF;" d="M158.942,345.603l28.167-16.262c1.196-0.69,2.165-0.2,2.165,1.096c0,1.295-0.97,2.905-2.165,3.595
			l-28.166,16.261c-1.196,0.69-2.165,0.2-2.165-1.095C156.777,347.903,157.746,346.294,158.942,345.603z"/>
	</g>
	<path style="fill:#27DEBF;" d="M158.942,354.973l20.042-11.571c1.196-0.69,2.165-0.2,2.165,1.095c0,1.295-0.969,2.905-2.165,3.595
		l-20.042,11.571c-1.196,0.69-2.165,0.2-2.165-1.095C156.777,357.273,157.746,355.664,158.942,354.973z"/>
	<g>
		<path style="fill:#27DEBF;" d="M171.127,237.723l28.166-16.262c1.196-0.69,2.165-0.2,2.165,1.095c0,1.295-0.969,2.905-2.165,3.595
			l-28.166,16.262c-1.196,0.69-2.165,0.2-2.165-1.095C168.962,240.023,169.932,238.413,171.127,237.723z"/>
		<path style="opacity:0.2;" d="M171.127,237.723l28.166-16.262c1.196-0.69,2.165-0.2,2.165,1.095c0,1.295-0.969,2.905-2.165,3.595
			l-28.166,16.262c-1.196,0.69-2.165,0.2-2.165-1.095C168.962,240.023,169.932,238.413,171.127,237.723z"/>
	</g>
	<g>
		<path style="fill:#27DEBF;" d="M158.942,354.973l20.042-11.571c1.196-0.69,2.165-0.2,2.165,1.095c0,1.295-0.969,2.905-2.165,3.595
			l-20.042,11.571c-1.196,0.69-2.165,0.2-2.165-1.095C156.777,357.273,157.746,355.664,158.942,354.973z"/>
	</g>
	<g>
		<path style="fill:#27DEBF;" d="M158.942,364.354l40.352-23.297c1.196-0.69,2.165-0.2,2.165,1.095c0,1.295-0.969,2.905-2.165,3.595
			l-40.352,23.297c-1.196,0.69-2.165,0.2-2.165-1.095C156.777,366.654,157.746,365.045,158.942,364.354z"/>
		<path style="opacity:0.8;fill:#FFFFFF;" d="M158.942,364.354l40.352-23.297c1.196-0.69,2.165-0.2,2.165,1.095
			c0,1.295-0.969,2.905-2.165,3.595l-40.352,23.297c-1.196,0.69-2.165,0.2-2.165-1.095
			C156.777,366.654,157.746,365.045,158.942,364.354z"/>
	</g>
	<g>
		<path style="fill:#27DEBF;" d="M158.942,364.354l36.291-20.952c1.196-0.69,2.165-0.2,2.165,1.095c0,1.295-0.97,2.905-2.166,3.595
			l-36.29,20.952c-1.196,0.69-2.165,0.2-2.165-1.095C156.777,366.654,157.746,365.045,158.942,364.354z"/>
	</g>
	<g>
		<path style="fill:#EBEBEB;" d="M300.844,57.089l-91.261,52.69v243.904l91.262-52.69c1.196-0.69,2.165-2.369,2.165-3.75
			l-0.001-238.903C303.009,56.958,302.039,56.399,300.844,57.089z"/>
		<path style="opacity:0.6;fill:#FAFAFA;" d="M300.844,57.089l-91.261,52.69v243.904l91.262-52.69
			c1.196-0.69,2.165-2.369,2.165-3.75l-0.001-238.903C303.009,56.958,302.039,56.399,300.844,57.089z"/>
	</g>
	<polygon style="fill:#27DEBF;" points="209.582,119.16 209.583,137.922 201.458,147.303 209.581,147.303 209.582,166.065 
		294.885,116.815 294.885,69.91 	"/>
	<g style="opacity:0.6;">
		<path style="fill:#FFFFFF;" d="M220.737,119.813l34.558-19.952c1.674-0.966,3.031-0.183,3.031,1.75v0.036
			c0,1.933-1.357,4.284-3.031,5.25l-34.557,19.953c-1.674,0.966-3.031,0.183-3.031-1.75v-0.036
			C217.706,123.13,219.063,120.779,220.737,119.813z"/>
	</g>
	<path style="fill:#27DEBF;" d="M218.789,134.952l66.89-38.619c0.598-0.345,1.082-0.1,1.082,0.548c0,0.648-0.485,1.452-1.082,1.798
		l-66.89,38.619c-0.598,0.345-1.083,0.1-1.083-0.548S218.191,135.297,218.789,134.952z"/>
	<g>
		<path style="fill:#27DEBF;" d="M218.789,134.952l66.89-38.619c0.598-0.345,1.082-0.1,1.082,0.548c0,0.648-0.485,1.452-1.082,1.798
			l-66.89,38.619c-0.598,0.345-1.083,0.1-1.083-0.548S218.191,135.297,218.789,134.952z"/>
		<path style="opacity:0.6;fill:#FFFFFF;" d="M218.789,134.952l66.89-38.619c0.598-0.345,1.082-0.1,1.082,0.548
			c0,0.648-0.485,1.452-1.082,1.798l-66.89,38.619c-0.598,0.345-1.083,0.1-1.083-0.548S218.191,135.297,218.789,134.952z"/>
	</g>
	<g>
		<g>
			<path style="fill:#27DEBF;" d="M218.789,141.987l66.89-38.619c0.598-0.345,1.082-0.1,1.082,0.548
				c0,0.648-0.485,1.452-1.082,1.798l-66.89,38.619c-0.598,0.345-1.083,0.1-1.083-0.548S218.191,142.333,218.789,141.987z"/>
			<path style="opacity:0.6;fill:#FFFFFF;" d="M218.789,141.987l66.89-38.619c0.598-0.345,1.082-0.1,1.082,0.548
				c0,0.648-0.485,1.452-1.082,1.798l-66.89,38.619c-0.598,0.345-1.083,0.1-1.083-0.548S218.191,142.333,218.789,141.987z"/>
		</g>
		<path style="opacity:0.6;fill:#FFFFFF;" d="M218.789,149.023l66.89-38.619c0.598-0.345,1.082-0.1,1.082,0.548
			c0,0.648-0.485,1.452-1.082,1.798l-66.89,38.619c-0.598,0.345-1.083,0.1-1.083-0.548S218.191,149.368,218.789,149.023z"/>
	</g>
	<g>
		<path style="fill:#27DEBF;" d="M221.309,168.696l4.66-2.691c0.957-0.552,1.732-0.105,1.732,1v5.381c0,1.105-0.776,2.448-1.732,3
			l-4.66,2.69c-0.957,0.552-1.732,0.105-1.732-1v-5.381C219.577,170.592,220.352,169.248,221.309,168.696z"/>
		<path style="opacity:0.2;fill:#FFFFFF;" d="M221.309,168.696l4.66-2.691c0.957-0.552,1.732-0.105,1.732,1v5.381
			c0,1.105-0.776,2.448-1.732,3l-4.66,2.69c-0.957,0.552-1.732,0.105-1.732-1v-5.381
			C219.577,170.592,220.352,169.248,221.309,168.696z"/>
	</g>
	<g>
		<path style="fill:#27DEBF;" d="M233.928,163.755l28.166-16.262c1.196-0.69,2.165-0.2,2.165,1.095c0,1.295-0.969,2.905-2.165,3.595
			l-28.166,16.262c-1.196,0.69-2.165,0.2-2.165-1.095C231.763,166.055,232.732,164.446,233.928,163.755z"/>
		<path style="opacity:0.8;fill:#FFFFFF;" d="M233.928,163.755l28.166-16.262c1.196-0.69,2.165-0.2,2.165,1.095
			c0,1.295-0.969,2.905-2.165,3.595l-28.166,16.262c-1.196,0.69-2.165,0.2-2.165-1.095
			C231.763,166.055,232.732,164.446,233.928,163.755z"/>
	</g>
	<path style="fill:#27DEBF;" d="M220.659,185.497l70.952-40.971c0.598-0.345,1.083-0.1,1.083,0.548c0,0.648-0.485,1.452-1.083,1.798
		l-70.952,40.971c-0.598,0.345-1.083,0.1-1.083-0.548S220.061,185.842,220.659,185.497z"/>
	<path style="fill:#27DEBF;" d="M220.659,192.532l70.952-40.971c0.598-0.345,1.083-0.1,1.083,0.548s-0.485,1.452-1.083,1.798
		l-70.952,40.971c-0.598,0.345-1.083,0.1-1.083-0.548S220.061,192.878,220.659,192.532z"/>
	<path style="fill:#27DEBF;" d="M220.659,199.568l70.952-40.971c0.598-0.345,1.083-0.1,1.083,0.548s-0.485,1.452-1.083,1.798
		l-70.952,40.971c-0.598,0.345-1.083,0.1-1.083-0.548S220.061,199.913,220.659,199.568z"/>
	<path style="fill:#27DEBF;" d="M220.659,206.623l70.952-40.971c0.598-0.345,1.083-0.1,1.083,0.548c0,0.648-0.485,1.452-1.083,1.798
		l-70.952,40.971c-0.598,0.345-1.083,0.1-1.083-0.548C219.577,207.773,220.061,206.968,220.659,206.623z"/>
	<g>
		<path style="fill:#E0E0E0;" d="M220.659,185.497l70.952-40.971c0.598-0.345,1.083-0.1,1.083,0.548
			c0,0.648-0.485,1.452-1.083,1.798l-70.952,40.971c-0.598,0.345-1.083,0.1-1.083-0.548S220.061,185.842,220.659,185.497z"/>
		<path style="fill:#E0E0E0;" d="M220.659,192.532l70.952-40.971c0.598-0.345,1.083-0.1,1.083,0.548s-0.485,1.452-1.083,1.798
			l-70.952,40.971c-0.598,0.345-1.083,0.1-1.083-0.548S220.061,192.878,220.659,192.532z"/>
		<path style="fill:#E0E0E0;" d="M220.659,199.568l70.952-40.971c0.598-0.345,1.083-0.1,1.083,0.548s-0.485,1.452-1.083,1.798
			l-70.952,40.971c-0.598,0.345-1.083,0.1-1.083-0.548S220.061,199.913,220.659,199.568z"/>
		<path style="fill:#E0E0E0;" d="M220.659,206.623l70.952-40.971c0.598-0.345,1.083-0.1,1.083,0.548
			c0,0.648-0.485,1.452-1.083,1.798l-70.952,40.971c-0.598,0.345-1.083,0.1-1.083-0.548
			C219.577,207.773,220.061,206.968,220.659,206.623z"/>
		<path style="opacity:0.8;fill:#E0E0E0;" d="M220.659,185.497l70.952-40.971c0.598-0.345,1.083-0.1,1.083,0.548
			c0,0.648-0.485,1.452-1.083,1.798l-70.952,40.971c-0.598,0.345-1.083,0.1-1.083-0.548S220.061,185.842,220.659,185.497z"/>
		<path style="opacity:0.8;fill:#E0E0E0;" d="M220.659,192.532l70.952-40.971c0.598-0.345,1.083-0.1,1.083,0.548
			s-0.485,1.452-1.083,1.798l-70.952,40.971c-0.598,0.345-1.083,0.1-1.083-0.548S220.061,192.878,220.659,192.532z"/>
		<path style="opacity:0.8;fill:#E0E0E0;" d="M220.659,199.568l70.952-40.971c0.598-0.345,1.083-0.1,1.083,0.548
			s-0.485,1.452-1.083,1.798l-70.952,40.971c-0.598,0.345-1.083,0.1-1.083-0.548S220.061,199.913,220.659,199.568z"/>
		<path style="opacity:0.8;fill:#E0E0E0;" d="M220.659,206.623l70.952-40.971c0.598-0.345,1.083-0.1,1.083,0.548
			c0,0.648-0.485,1.452-1.083,1.798l-70.952,40.971c-0.598,0.345-1.083,0.1-1.083-0.548
			C219.577,207.773,220.061,206.968,220.659,206.623z"/>
	</g>
	<g>
		<path style="fill:#E0E0E0;" d="M220.659,236.497l70.952-40.971c0.598-0.345,1.083-0.1,1.083,0.548
			c0,0.648-0.485,1.452-1.083,1.798l-70.952,40.971c-0.598,0.345-1.083,0.1-1.083-0.548S220.061,236.842,220.659,236.497z"/>
		<path style="fill:#E0E0E0;" d="M220.659,243.532l70.952-40.971c0.598-0.345,1.083-0.1,1.083,0.548s-0.485,1.452-1.083,1.798
			l-70.952,40.971c-0.598,0.345-1.083,0.1-1.083-0.548S220.061,243.878,220.659,243.532z"/>
		<path style="fill:#E0E0E0;" d="M220.659,250.568l70.952-40.971c0.598-0.345,1.083-0.1,1.083,0.548s-0.485,1.452-1.083,1.798
			l-70.952,40.971c-0.598,0.345-1.083,0.1-1.083-0.548S220.061,250.913,220.659,250.568z"/>
		<path style="fill:#E0E0E0;" d="M220.659,257.623l70.952-40.971c0.598-0.345,1.083-0.1,1.083,0.548
			c0,0.648-0.485,1.452-1.083,1.798l-70.952,40.971c-0.598,0.345-1.083,0.1-1.083-0.548
			C219.577,258.773,220.061,257.968,220.659,257.623z"/>
		<path style="opacity:0.8;fill:#E0E0E0;" d="M220.659,236.497l70.952-40.971c0.598-0.345,1.083-0.1,1.083,0.548
			c0,0.648-0.485,1.452-1.083,1.798l-70.952,40.971c-0.598,0.345-1.083,0.1-1.083-0.548S220.061,236.842,220.659,236.497z"/>
		<path style="opacity:0.8;fill:#E0E0E0;" d="M220.659,243.532l70.952-40.971c0.598-0.345,1.083-0.1,1.083,0.548
			s-0.485,1.452-1.083,1.798l-70.952,40.971c-0.598,0.345-1.083,0.1-1.083-0.548S220.061,243.878,220.659,243.532z"/>
		<path style="opacity:0.8;fill:#E0E0E0;" d="M220.659,250.568l70.952-40.971c0.598-0.345,1.083-0.1,1.083,0.548
			s-0.485,1.452-1.083,1.798l-70.952,40.971c-0.598,0.345-1.083,0.1-1.083-0.548S220.061,250.913,220.659,250.568z"/>
		<path style="opacity:0.8;fill:#E0E0E0;" d="M220.659,257.623l70.952-40.971c0.598-0.345,1.083-0.1,1.083,0.548
			c0,0.648-0.485,1.452-1.083,1.798l-70.952,40.971c-0.598,0.345-1.083,0.1-1.083-0.548
			C219.577,258.773,220.061,257.968,220.659,257.623z"/>
	</g>
	<g>
		<path style="fill:#E0E0E0;" d="M220.659,288.497l70.952-40.971c0.598-0.345,1.083-0.1,1.083,0.548
			c0,0.648-0.485,1.452-1.083,1.798l-70.952,40.971c-0.598,0.345-1.083,0.1-1.083-0.548
			C219.577,289.647,220.061,288.842,220.659,288.497z"/>
		<path style="fill:#E0E0E0;" d="M220.659,295.532l70.952-40.971c0.598-0.345,1.083-0.1,1.083,0.548s-0.485,1.452-1.083,1.798
			l-70.952,40.971c-0.598,0.345-1.083,0.1-1.083-0.548C219.577,296.682,220.061,295.878,220.659,295.532z"/>
		<path style="fill:#E0E0E0;" d="M220.659,302.568l70.952-40.971c0.598-0.345,1.083-0.1,1.083,0.548
			c0,0.648-0.485,1.452-1.083,1.798l-70.952,40.971c-0.598,0.345-1.083,0.1-1.083-0.548
			C219.577,303.718,220.061,302.913,220.659,302.568z"/>
		<path style="fill:#E0E0E0;" d="M220.659,309.623l70.952-40.971c0.598-0.345,1.083-0.1,1.083,0.548
			c0,0.648-0.485,1.452-1.083,1.798l-70.952,40.971c-0.598,0.345-1.083,0.1-1.083-0.548
			C219.577,310.773,220.061,309.968,220.659,309.623z"/>
		<path style="opacity:0.8;fill:#E0E0E0;" d="M220.659,288.497l70.952-40.971c0.598-0.345,1.083-0.1,1.083,0.548
			c0,0.648-0.485,1.452-1.083,1.798l-70.952,40.971c-0.598,0.345-1.083,0.1-1.083-0.548
			C219.577,289.647,220.061,288.842,220.659,288.497z"/>
		<path style="opacity:0.8;fill:#E0E0E0;" d="M220.659,295.532l70.952-40.971c0.598-0.345,1.083-0.1,1.083,0.548
			s-0.485,1.452-1.083,1.798l-70.952,40.971c-0.598,0.345-1.083,0.1-1.083-0.548C219.577,296.682,220.061,295.878,220.659,295.532z"
			/>
		<path style="opacity:0.8;fill:#E0E0E0;" d="M220.659,302.568l70.952-40.971c0.598-0.345,1.083-0.1,1.083,0.548
			c0,0.648-0.485,1.452-1.083,1.798l-70.952,40.971c-0.598,0.345-1.083,0.1-1.083-0.548
			C219.577,303.718,220.061,302.913,220.659,302.568z"/>
		<path style="opacity:0.8;fill:#E0E0E0;" d="M220.659,309.623l70.952-40.971c0.598-0.345,1.083-0.1,1.083,0.548
			c0,0.648-0.485,1.452-1.083,1.798l-70.952,40.971c-0.598,0.345-1.083,0.1-1.083-0.548
			C219.577,310.773,220.061,309.968,220.659,309.623z"/>
	</g>
	<g>
		<path style="fill:#27DEBF;" d="M221.309,220.292l4.66-2.69c0.957-0.552,1.732-0.105,1.732,1v5.381c0,1.105-0.776,2.448-1.732,3
			l-4.66,2.69c-0.957,0.552-1.732,0.105-1.732-1v-5.381C219.577,222.187,220.352,220.844,221.309,220.292z"/>
		<path style="opacity:0.2;fill:#FFFFFF;" d="M221.309,220.292l4.66-2.69c0.957-0.552,1.732-0.105,1.732,1v5.381
			c0,1.105-0.776,2.448-1.732,3l-4.66,2.69c-0.957,0.552-1.732,0.105-1.732-1v-5.381
			C219.577,222.187,220.352,220.844,221.309,220.292z"/>
	</g>
	<g>
		<path style="fill:#27DEBF;" d="M233.928,215.351l28.166-16.262c1.196-0.69,2.165-0.2,2.165,1.095c0,1.295-0.969,2.905-2.165,3.595
			l-28.166,16.262c-1.196,0.69-2.165,0.2-2.165-1.095S232.732,216.041,233.928,215.351z"/>
		<path style="opacity:0.8;fill:#FFFFFF;" d="M233.928,215.351l28.166-16.262c1.196-0.69,2.165-0.2,2.165,1.095
			c0,1.295-0.969,2.905-2.165,3.595l-28.166,16.262c-1.196,0.69-2.165,0.2-2.165-1.095S232.732,216.041,233.928,215.351z"/>
	</g>
	<g>
		<path style="fill:#27DEBF;" d="M221.309,271.887l4.66-2.69c0.957-0.552,1.732-0.105,1.732,1v5.381c0,1.105-0.776,2.448-1.732,3
			l-4.66,2.69c-0.957,0.552-1.732,0.105-1.732-1v-5.381C219.577,273.783,220.352,272.439,221.309,271.887z"/>
		<path style="opacity:0.2;fill:#FFFFFF;" d="M221.309,271.887l4.66-2.69c0.957-0.552,1.732-0.105,1.732,1v5.381
			c0,1.105-0.776,2.448-1.732,3l-4.66,2.69c-0.957,0.552-1.732,0.105-1.732-1v-5.381
			C219.577,273.783,220.352,272.439,221.309,271.887z"/>
	</g>
	<g>
		<path style="fill:#27DEBF;" d="M233.928,266.947l28.166-16.262c1.196-0.69,2.165-0.2,2.165,1.095c0,1.295-0.969,2.905-2.165,3.595
			l-28.166,16.262c-1.196,0.69-2.165,0.2-2.165-1.095C231.763,269.246,232.732,267.637,233.928,266.947z"/>
		<path style="opacity:0.8;fill:#FFFFFF;" d="M233.928,266.947l28.166-16.262c1.196-0.69,2.165-0.2,2.165,1.095
			c0,1.295-0.969,2.905-2.165,3.595l-28.166,16.262c-1.196,0.69-2.165,0.2-2.165-1.095
			C231.763,269.246,232.732,267.637,233.928,266.947z"/>
	</g>
	<path style="fill:#27DEBF;" d="M227.944,317.314l4.66-2.691c0.957-0.552,1.732-0.105,1.732,1v5.381c0,1.105-0.775,2.448-1.732,3
		l-4.66,2.69c-0.957,0.552-1.732,0.105-1.732-1v-5.381C226.212,319.209,226.987,317.866,227.944,317.314z"/>
	<path style="fill:#E0E0E0;" d="M220.659,335.592l19.229-11.1c0.598-0.345,1.083-0.1,1.083,0.548c0,0.648-0.485,1.452-1.083,1.798
		l-19.229,11.1c-0.598,0.345-1.083,0.1-1.083-0.548S220.061,335.937,220.659,335.592z"/>
	<path style="fill:#27DEBF;" d="M253.806,302.37l4.66-2.69c0.957-0.552,1.732-0.105,1.732,1v5.381c0,1.105-0.776,2.448-1.732,3
		l-4.66,2.69c-0.957,0.552-1.732,0.105-1.732-1v-5.381C252.074,304.266,252.849,302.923,253.806,302.37z"/>
	<path style="fill:#E0E0E0;" d="M246.521,320.649l19.229-11.1c0.598-0.345,1.083-0.1,1.083,0.548c0,0.648-0.485,1.452-1.083,1.798
		l-19.229,11.1c-0.598,0.345-1.082,0.1-1.082-0.548C245.439,321.799,245.924,320.994,246.521,320.649z"/>
	<path style="fill:#27DEBF;" d="M279.668,287.427l4.66-2.69c0.956-0.552,1.732-0.105,1.732,1v5.381c0,1.104-0.776,2.448-1.732,3
		l-4.66,2.69c-0.957,0.552-1.732,0.104-1.732-1v-5.381C277.936,289.323,278.711,287.979,279.668,287.427z"/>
	<path style="opacity:0.2;fill:#FFFFFF;" d="M227.944,317.314l4.66-2.691c0.957-0.552,1.732-0.105,1.732,1v5.381
		c0,1.105-0.775,2.448-1.732,3l-4.66,2.69c-0.957,0.552-1.732,0.105-1.732-1v-5.381
		C226.212,319.209,226.987,317.866,227.944,317.314z"/>
	<path style="opacity:0.2;fill:#FFFFFF;" d="M253.806,302.37l4.66-2.69c0.957-0.552,1.732-0.105,1.732,1v5.381
		c0,1.105-0.776,2.448-1.732,3l-4.66,2.69c-0.957,0.552-1.732,0.105-1.732-1v-5.381C252.074,304.266,252.849,302.923,253.806,302.37
		z"/>
	<path style="opacity:0.2;fill:#FFFFFF;" d="M279.668,287.427l4.66-2.69c0.956-0.552,1.732-0.105,1.732,1v5.381
		c0,1.104-0.776,2.448-1.732,3l-4.66,2.69c-0.957,0.552-1.732,0.104-1.732-1v-5.381
		C277.936,289.323,278.711,287.979,279.668,287.427z"/>
	<path style="fill:#E0E0E0;" d="M272.384,305.706l19.229-11.1c0.598-0.345,1.083-0.1,1.083,0.548c0,0.648-0.485,1.452-1.083,1.798
		l-19.229,11.1c-0.598,0.345-1.083,0.1-1.083-0.548C271.301,306.856,271.786,306.051,272.384,305.706z"/>
	<g>
		<defs>
			<path id="SVGID_1_" d="M177.086,138.856c-11.217,6.326-20.31,22.075-20.31,35.178c0,13.103,9.093,18.475,20.31,11.999
				c11.217-6.476,20.31-22.226,20.31-35.178C197.396,137.902,188.303,132.53,177.086,138.856z"/>
		</defs>
		<clipPath id="SVGID_00000126297510410568012260000009285510846504358785_">
			<use xlink:href="#SVGID_1_"  style="overflow:visible;"/>
		</clipPath>
		<path style="clip-path:url(#SVGID_00000126297510410568012260000009285510846504358785_);fill:#FAFAFA;" d="M177.086,138.856
			c-11.217,6.326-20.31,22.075-20.31,35.178c0,13.103,9.093,18.475,20.31,11.999c11.217-6.476,20.31-22.226,20.31-35.178
			C197.396,137.902,188.303,132.53,177.086,138.856z"/>
		<path style="clip-path:url(#SVGID_00000126297510410568012260000009285510846504358785_);fill:none;" d="M177.086,138.856
			c-11.217,6.326-20.31,22.075-20.31,35.178c0,13.103,9.093,18.475,20.31,11.999c11.217-6.476,20.31-22.226,20.31-35.178
			C197.396,137.902,188.303,132.53,177.086,138.856z"/>
		<path style="clip-path:url(#SVGID_00000126297510410568012260000009285510846504358785_);fill:none;" d="M177.086,138.856
			c-11.217,6.326-20.31,22.075-20.31,35.178c0,13.103,9.093,18.475,20.31,11.999c11.217-6.476,20.31-22.226,20.31-35.178
			C197.396,137.902,188.303,132.53,177.086,138.856z"/>
		<g id="XMLID_689_" style="clip-path:url(#SVGID_00000126297510410568012260000009285510846504358785_);">
			<g id="XMLID_690_">
				<path style="fill:#37474F;" d="M186.926,179.234l-16.255,4.355c-1.277,0.342-2.313-0.49-2.313-1.859v-27.681
					c0-4.536,3.431-9.132,7.662-10.266l5.555-1.489c4.232-1.134,7.663,1.624,7.663,6.159v27.681
					C189.239,177.505,188.203,178.892,186.926,179.234z"/>
			</g>
		</g>
		<g style="clip-path:url(#SVGID_00000126297510410568012260000009285510846504358785_);">
			<g id="XMLID_712_">
				<path style="fill:#F28F8F;" d="M187.708,186.393l-1.744-7.552c0,0,0.017-10.188-1.457-11.13
					c-1.474-0.942-1.868-1.117-1.868-1.117c1.862-0.642,5.784-1.128,7.024,2.455c1.169,3.378,2.92,11.711,3.751,15.815
					L187.708,186.393z"/>
			</g>
			<g id="XMLID_711_">
				<path style="fill:#27DEBF;" d="M187.569,186.43l-5.795-19.749c2.568-1.005,5.861-1.83,7.465,0.821
					c1.441,2.381,3.74,14.843,4.194,17.357L187.569,186.43z"/>
			</g>
			<g id="XMLID_4_" style="opacity:0.4;">
				<path d="M187.569,186.43l-5.795-19.749c2.568-1.005,5.861-1.83,7.465,0.821c1.441,2.381,3.74,14.843,4.194,17.357
					L187.569,186.43z"/>
			</g>
		</g>
		<g id="XMLID_710_" style="clip-path:url(#SVGID_00000126297510410568012260000009285510846504358785_);">
			<path style="fill:#27DEBF;" d="M188.348,186.222l-5.698,1.527c0.376-2.005,0.946-3.764,1.594-4.644
				c2.118-2.875,4.673-3.517,4.673-3.517S188.252,182.913,188.348,186.222z"/>
		</g>
		<g style="clip-path:url(#SVGID_00000126297510410568012260000009285510846504358785_);">
			<g id="XMLID_5_">
				<path style="fill:#27DEBF;" d="M188.348,186.222l-5.698,1.527c0.376-2.005,0.946-3.764,1.594-4.644
					c2.118-2.875,4.673-3.517,4.673-3.517S188.252,182.913,188.348,186.222z"/>
			</g>
			<g id="XMLID_7_" style="opacity:0.7;">
				<path d="M188.348,186.222l-5.698,1.527c0.376-2.005,0.946-3.764,1.594-4.644c2.118-2.875,4.673-3.517,4.673-3.517
					S188.252,182.913,188.348,186.222z"/>
			</g>
		</g>
		<g id="XMLID_681_" style="clip-path:url(#SVGID_00000126297510410568012260000009285510846504358785_);">
			<g id="XMLID_707_">
				<path style="fill:#27DEBF;" d="M187.125,186.549l-15.952,4.274l-1.767-5.458c0,0,4.67-10.93-1.098-13.733
					c0.736-0.551,6.885-2.957,6.885-2.957l6.607-1.978c1.257-0.337,6.35,1.921,7.64,6.928c0.459,1.779,0.299,3.36-2.286,12.579
					C187.138,186.31,187.131,186.429,187.125,186.549z"/>
			</g>
		</g>
		<g id="XMLID_669_" style="clip-path:url(#SVGID_00000126297510410568012260000009285510846504358785_);">
			<g id="XMLID_670_">
				<path style="fill:#FFA8A7;" d="M185.809,145.686c1.103,0.403,2.466,3.011,2.331,9.279c-0.114,5.312-1.711,7.045-2.513,7.636
					s-2.349,0.777-3.853,0.911v3.17c0,0,2.078,2.031,1.948,3.519c-0.131,1.489-3.001,2.601-4.946,1.702
					c-1.945-0.899-3.583-3.228-3.583-3.228l0.034-7.298c0,0-0.885,1.159-2.386,0.154c-1.239-0.829-1.656-2.675-0.691-3.984
					c0.965-1.309,2.75-1.501,3.434-0.187c0,0,0.836-2.712,4.3-4.853C183.014,150.573,184.715,148.855,185.809,145.686z"/>
			</g>
		</g>
		<g id="XMLID_665_" style="clip-path:url(#SVGID_00000126297510410568012260000009285510846504358785_);">
			<g id="XMLID_666_">
				<path style="fill:#37474F;" d="M182.638,155.112c0.018,0.376-0.245,0.769-0.587,0.878c-0.342,0.109-0.633-0.107-0.651-0.483
					c-0.018-0.376,0.245-0.769,0.587-0.878C182.329,154.52,182.621,154.736,182.638,155.112z"/>
			</g>
		</g>
		<g id="XMLID_663_" style="clip-path:url(#SVGID_00000126297510410568012260000009285510846504358785_);">
			<g id="XMLID_664_">
				<path style="fill:#F28F8F;" d="M182.804,159.545l1.439,0.106c-0.12,0.474-0.539,0.834-0.936,0.804
					C182.91,160.427,182.684,160.019,182.804,159.545z"/>
			</g>
		</g>
		<g id="XMLID_659_" style="clip-path:url(#SVGID_00000126297510410568012260000009285510846504358785_);">
			<g id="XMLID_660_">
				<path style="fill:#37474F;" d="M187.719,151.711l-1.254-0.595c0.229-0.445,0.695-0.673,1.041-0.508
					C187.853,150.772,187.948,151.266,187.719,151.711z"/>
			</g>
		</g>
		<g id="XMLID_656_" style="clip-path:url(#SVGID_00000126297510410568012260000009285510846504358785_);">
			<g id="XMLID_657_">
				<path style="fill:#37474F;" d="M180.835,154.048l1.254-1.267c-0.229-0.323-0.695-0.3-1.041,0.05
					C180.701,153.18,180.606,153.725,180.835,154.048z"/>
			</g>
		</g>
		<g id="XMLID_649_" style="clip-path:url(#SVGID_00000126297510410568012260000009285510846504358785_);">
			<g id="XMLID_655_">
				<path style="fill:#37474F;" d="M187.43,153.348c0.018,0.376-0.245,0.769-0.587,0.878c-0.342,0.109-0.633-0.107-0.651-0.483
					c-0.018-0.376,0.245-0.769,0.587-0.878C187.121,152.756,187.413,152.972,187.43,153.348z"/>
			</g>
		</g>
		<g id="XMLID_428_" style="clip-path:url(#SVGID_00000126297510410568012260000009285510846504358785_);">
			<g id="XMLID_473_">
				<polygon style="fill:#F28F8F;" points="184.507,153.751 184.605,157.723 186.569,156.545 				"/>
			</g>
		</g>
		<g id="XMLID_249_" style="clip-path:url(#SVGID_00000126297510410568012260000009285510846504358785_);">
			<g id="XMLID_251_">
				<path style="fill:#F28F8F;" d="M181.774,163.512c-1.585,0.202-4.845,0.072-5.353-1.174c0,0,0.169,0.823,1.143,1.457
					c0.974,0.634,4.21,0.775,4.21,0.775V163.512z"/>
			</g>
		</g>
		<g id="XMLID_245_" style="clip-path:url(#SVGID_00000126297510410568012260000009285510846504358785_);">
			<g id="XMLID_700_">
				<polygon style="fill:#27DEBF;" points="171.225,190.81 170.55,188.429 172.314,190.518 				"/>
			</g>
		</g>
		<g style="clip-path:url(#SVGID_00000126297510410568012260000009285510846504358785_);">
			<path style="fill:#27DEBF;" d="M169.909,191.163c-0.375-2.225-1.599-6.426-2.926-10.062c-1.682-4.609,0.196-8.589,1.325-9.469
				c1.129-0.88,6.885-2.957,6.885-2.957c2.079,5.927,2.65,13.853,2.697,20.348L169.909,191.163z"/>
			<path style="opacity:0.4;" d="M169.909,191.163c-0.375-2.225-1.599-6.426-2.926-10.062c-1.682-4.609,0.196-8.589,1.325-9.469
				c1.129-0.88,6.885-2.957,6.885-2.957c2.079,5.927,2.65,13.853,2.697,20.348L169.909,191.163z"/>
		</g>
		<g style="clip-path:url(#SVGID_00000126297510410568012260000009285510846504358785_);">
			<path style="fill:#27DEBF;" d="M167.07,191.923l-5.712,1.531c-0.29-0.206-0.45-0.366-0.45-0.366s2.704-10.418,3.563-13.88
				c0.859-3.462,1.518-5.837,3.838-7.575c4.17,2.712,2.242,10.241,2.242,10.241L167.07,191.923z"/>
			<path style="opacity:0.4;" d="M167.07,191.923l-5.712,1.531c-0.29-0.206-0.45-0.366-0.45-0.366s2.704-10.418,3.563-13.88
				c0.859-3.462,1.518-5.837,3.838-7.575c4.17,2.712,2.242,10.241,2.242,10.241L167.07,191.923z"/>
		</g>
		<path style="clip-path:url(#SVGID_00000126297510410568012260000009285510846504358785_);fill:none;" d="M177.086,138.856
			c-11.217,6.326-20.31,22.075-20.31,35.178c0,13.103,9.093,18.475,20.31,11.999c11.217-6.476,20.31-22.226,20.31-35.178
			C197.396,137.902,188.303,132.53,177.086,138.856z"/>
		<path style="clip-path:url(#SVGID_00000126297510410568012260000009285510846504358785_);fill:none;" d="M177.086,138.856
			c-11.217,6.326-20.31,22.075-20.31,35.178c0,13.103,9.093,18.475,20.31,11.999c11.217-6.476,20.31-22.226,20.31-35.178
			C197.396,137.902,188.303,132.53,177.086,138.856z"/>
	</g>
</g>
<g id="Graduation_cap">
	<g id="XMLID_233_">
		<g id="XMLID_448_">
			<g id="XMLID_449_">
				<path style="fill:#EBEBEB;" d="M83.925,125.335v-19.819h0.005c-0.06-3.835,2.44-7.682,7.509-10.608
					c10.019-5.785,26.263-5.785,36.283,0c5.069,2.926,7.569,6.773,7.509,10.608h0.002v19.743c0.04,3.821-2.462,10.648-7.511,13.563
					c-10.019,5.785-26.263,5.785-36.283,0c-4.998-2.886-7.502-9.666-7.513-13.448h-0.001v-0.013
					C83.925,125.353,83.925,125.344,83.925,125.335z"/>
			</g>
		</g>
		<g id="XMLID_445_">
			<polygon style="fill:#F5F5F5;" points="109.581,80.942 151.91,105.381 109.58,129.82 67.251,105.381 			"/>
		</g>
		<g id="XMLID_442_">
			<path style="fill:#E0E0E0;" d="M88.397,117.59l20.849-11.895c0.357-0.205,0.812-0.079,1.015,0.278
				c0.203,0.357,0.079,0.812-0.278,1.015L89.89,118.452L88.397,117.59z"/>
		</g>
		<g id="XMLID_439_">
			<polygon style="fill:#E6E6E6;" points="151.91,105.381 151.909,107.127 109.58,131.565 109.58,129.82 			"/>
		</g>
		<g id="XMLID_436_">
			<polygon style="fill:#F0F0F0;" points="67.251,105.381 67.252,107.127 109.58,131.565 109.58,129.82 			"/>
		</g>
		<g id="XMLID_409_">
			<path style="fill:#E0E0E0;" d="M87.347,118.729l1.292,0.746c0.193-0.314,0.458-0.585,0.789-0.773l0.45-0.257l-1.47-0.849
				C87.973,117.899,87.613,118.284,87.347,118.729z"/>
		</g>
		<g id="XMLID_435_">
			<polygon style="fill:#E0E0E0;" points="135.28,116.728 109.579,134.184 83.949,116.767 109.58,131.565 			"/>
		</g>
		<g id="XMLID_234_">
			<g id="XMLID_417_">
				<g id="XMLID_427_">
					<g>
						<path style="fill:#F5F5F5;" d="M85.698,139.309c0.49,0.365,1.759,0.393,2.326,0l1.904,12.331c0,2.328-6.047,2.328-6.047,0
							L85.698,139.309z"/>
					</g>
				</g>
				<g id="XMLID_424_">
					<path style="fill:#EBEBEB;" d="M85.594,146.347l-0.38,6.767c-0.129-0.046-0.254-0.098-0.369-0.156L85.594,146.347z"/>
				</g>
				<g id="XMLID_421_">
					<path style="fill:#EBEBEB;" d="M88.453,153.162l-0.801-10.989l1.188,10.843C88.717,153.07,88.588,153.119,88.453,153.162z"/>
				</g>
				<g id="XMLID_418_">
					<path style="fill:#EBEBEB;" d="M87.095,153.381c-0.127,0.004-0.254,0.004-0.38,0l0.194-8.726L87.095,153.381z"/>
				</g>
			</g>
			<g id="XMLID_412_">
				<g id="XMLID_52_">
					<path style="fill:#E0E0E0;" d="M86.845,140.339c0.412,0,0.828-0.139,1.23-0.417c0.338-0.234,0.422-0.698,0.189-1.036
						c-0.234-0.338-0.698-0.423-1.036-0.189c-0.32,0.222-0.497,0.175-0.713,0.015c-0.33-0.246-0.797-0.178-1.042,0.152
						c-0.246,0.33-0.178,0.796,0.152,1.042C86.012,140.194,86.427,140.339,86.845,140.339z"/>
				</g>
			</g>
			<g id="XMLID_410_">
				<g id="XMLID_411_">
					<path style="fill:#FAFAFA;" d="M86.904,138.419c0.411,0,0.744-0.333,0.744-0.744v-17.477c0-0.798,0.43-1.539,1.123-1.934
						l21.212-12.102c0.357-0.204,0.481-0.658,0.278-1.016c-0.204-0.357-0.659-0.482-1.015-0.278l-21.212,12.102
						c-1.156,0.66-1.874,1.896-1.874,3.227v17.477C86.16,138.086,86.493,138.419,86.904,138.419z"/>
				</g>
			</g>
			<g id="XMLID_238_">
				<g>
					<path style="fill:#F5F5F5;" d="M88.538,137.675c0-0.902-0.732-1.634-1.634-1.634c-0.902,0-1.634,0.732-1.634,1.634
						c0,0.902,0.731,1.634,1.634,1.634C87.806,139.309,88.538,138.577,88.538,137.675z"/>
				</g>
			</g>
			<g id="XMLID_235_">
				<path style="fill:#EBEBEB;" d="M85.279,137.767c0.091,0.391,0.895,1.138,1.818,0.621c0.987-0.553,0.798-1.814,0.032-2.325
					c0.795,0.111,1.409,0.786,1.409,1.611c0,0.902-0.732,1.634-1.634,1.634C86.033,139.309,85.328,138.626,85.279,137.767z"/>
			</g>
		</g>
	</g>
</g>
<g id="Speech_Bubbles">
	<g id="XMLID_213_">
		<g id="XMLID_212_">
			<g id="XMLID_192_">
				<polygon style="fill:#E0E0E0;" points="376.612,128.027 368.876,123.577 373.132,122.675 377.359,125.634 				"/>
			</g>
			<g id="XMLID_194_">
				<g id="XMLID_203_">
					<g id="XMLID_205_">
						<g id="XMLID_206_">
							<path style="fill:#E0E0E0;" d="M363.076,88.199c-0.014-12.028-7.347-17.571-16.373-12.359l-13.341,7.702
								c-9.026,5.211-16.373,19.249-16.373,31.284c0,0.494,0.014,0.979,0.043,1.437c0,0.266,0.029,0.496,0.043,0.754
								c0.014,0.239,0.043,0.469,0.071,0.699c0.029,0.268,0.057,0.537,0.1,0.797c0.214,1.528,0.584,2.909,1.053,4.157
								c0.214,0.503,0.427,0.968,0.669,1.417c0.114,0.238,0.242,0.468,0.384,0.67c0.042,0.07,0.085,0.141,0.128,0.211
								c0.228,0.381,0.484,0.746,0.769,1.056c0.157,0.175,0.313,0.37,0.484,0.537l0.512,0.501c0.185,0.14,0.356,0.307,0.541,0.447
								c0.185,0.14,0.37,0.28,0.569,0.393c0.2,0.113,0.399,0.225,0.598,0.338c0.755,0.419,1.581,0.682,2.449,0.826
								c0.071-0.003,0.142,0.013,0.199,0.037c0.228,0.02,0.441,0.049,0.669,0.05c0.242,0.031,0.484,0.024,0.726,0.017
								c0.612,0.007,1.253-0.059,1.908-0.209c0.37-0.081,0.74-0.162,1.111-0.281v0.019c1.082-0.321,2.192-0.81,3.346-1.476
								l13.341-7.702c0.883-0.509,1.765-1.114,2.62-1.778c-0.014-0.163-0.029-0.306-0.042-0.45
								c-0.015-0.276-0.029-0.477-0.029-0.648c-0.029-0.401-0.043-0.811-0.043-1.228C349.208,105.07,355.373,93.044,363.076,88.199z
								"/>
						</g>
					</g>
					<g id="XMLID_193_">
						<path style="fill:#E0E0E0;" d="M365.332,79.547c0,0-7.798-4.487-7.751-4.459c0.047,0.027,0.785,5.395,0.785,5.395l5.755,0.677
							L365.332,79.547z"/>
					</g>
					<g id="XMLID_209_">
						<polygon style="fill:#E0E0E0;" points="329.521,131.958 322.356,127.901 326.667,126.045 						"/>
					</g>
					<g id="XMLID_204_">
						<path style="fill:#E0E0E0;" d="M333.361,127.223c0,1.596-0.449,5.193-2.735,8.242c-0.318,0.424,0.172,0.794,0.537,0.607
							c1.199-0.615,2.589-1.535,4.259-3.437c2.474-2.817,4.054-6.597,4.61-9.263L333.361,127.223z"/>
					</g>
					<g id="XMLID_208_">
						<path style="fill:#E0E0E0;" d="M330.709,136.052l7.752,4.459c0,0,4.345-3.672,4.345-11.098l-8.407-0.576
							C334.4,128.837,334.204,133.675,330.709,136.052z"/>
					</g>
				</g>
				<g id="XMLID_195_">
					<g id="XMLID_197_">
						<g id="XMLID_198_">
							<path style="fill:#E0E0E0;" d="M351.349,114.188c0,0.37,0.011,0.735,0.032,1.079c0,0.2,0.021,0.372,0.032,0.566
								c0.011,0.179,0.032,0.352,0.054,0.525c0.021,0.201,0.043,0.403,0.075,0.598c0.128,0.952,0.342,1.826,0.62,2.606
								c0.043,0.16,0.096,0.301,0.16,0.449c0.075,0.199,0.15,0.398,0.246,0.585c0.085,0.193,0.171,0.372,0.267,0.544
								c0.085,0.179,0.182,0.351,0.289,0.503c0.032,0.067,0.064,0.12,0.096,0.158c0.182,0.28,0.374,0.539,0.577,0.792
								c0.118,0.146,0.235,0.278,0.363,0.403l0.385,0.376c0.128,0.125,0.267,0.23,0.406,0.335c0.139,0.105,0.278,0.21,0.427,0.295
								c0.15,0.084,0.289,0.175,0.449,0.254c0.15,0.085,0.299,0.155,0.46,0.219c0.16,0.064,0.32,0.128,0.481,0.178
								c0.011,0.008,0.011,0.008,0.011,0.008c0.289,0.09,0.588,0.159,0.887,0.215c0.053,0.012,0.096,0.016,0.15,0.028
								c0.16,0.021,0.331,0.037,0.502,0.038c0.171,0.029,0.353,0.024,0.545,0.013c0.406,0.008,0.834-0.039,1.282-0.128
								c0.321-0.043,0.652-0.134,0.983-0.226c0.812-0.241,1.657-0.615,2.511-1.108l10.014-5.782c0.866-0.5,1.699-1.095,2.511-1.792
								v-0.014c0.278-0.232,0.556-0.492,0.834-0.752c0.491-0.455,0.973-0.961,1.432-1.497c0.182-0.205,0.363-0.409,0.545-0.642
								c0.171-0.198,0.331-0.405,0.502-0.618c0.043-0.067,0.096-0.141,0.15-0.2c0.652-0.861,1.272-1.775,1.838-2.743
								c0.149-0.257,0.299-0.515,0.449-0.772c0.15-0.257,0.288-0.523,0.427-0.788c0.139-0.266,0.267-0.539,0.406-0.804l0.385-0.821
								c0.128-0.273,0.246-0.555,0.363-0.823c0.214-0.48,0.406-0.975,0.577-1.459c0.032-0.09,0.064-0.18,0.096-0.269
								c0.107-0.275,0.203-0.559,0.289-0.836c0.182-0.547,0.342-1.081,0.503-1.644c0.352-1.343,0.63-2.701,0.791-4.033
								c0.032-0.232,0.053-0.458,0.075-0.685c0.021-0.198,0.043-0.395,0.054-0.587c0.011-0.206,0.032-0.403,0.032-0.603
								c0.021-0.369,0.032-0.745,0.032-1.116c0-9.034-5.515-13.203-12.29-9.291l-10.014,5.782
								C356.864,94.617,351.349,105.154,351.349,114.188z"/>
						</g>
					</g>
					<g id="XMLID_210_">
						<polygon style="fill:#E0E0E0;" points="389.508,88.784 381.825,84.366 378.921,86.406 387.892,91.837 						"/>
					</g>
					<g id="XMLID_211_">
						<polygon style="fill:#E0E0E0;" points="363.113,128.452 355.378,124.003 361.441,122.194 						"/>
					</g>
					<g id="XMLID_196_">
						<path style="fill:#27DEBF;" d="M372.132,118.591c0,1.596,1.997,3.781,4.284,4.19c0.318,0.057,0.234,0.74-0.131,0.975
							c-1.199,0.77-2.813,0.926-4.473,0.743c-2.668-0.294-4.011-1.469-4.801-2.951L372.132,118.591z"/>
					</g>
				</g>
			</g>
		</g>
		<g id="XMLID_139_">
			<g id="XMLID_219_">
				<path style="fill:#F0F0F0;" d="M354.442,80.292l-13.349,7.701c-9.027,5.21-16.365,19.246-16.365,31.279
					c0,0.496,0.01,0.983,0.038,1.441c0,0.267,0.029,0.496,0.038,0.754c0.019,0.238,0.048,0.467,0.076,0.696
					c0.029,0.267,0.057,0.544,0.095,0.802c0.219,1.527,0.592,2.91,1.059,4.151c0.21,0.506,0.43,0.973,0.668,1.422
					c0.114,0.238,0.238,0.467,0.382,0.668c0.048,0.076,0.086,0.143,0.134,0.21c0.229,0.382,0.477,0.744,0.763,1.059
					c0.162,0.172,0.315,0.372,0.487,0.534l0.515,0.506c0.181,0.134,0.353,0.305,0.534,0.449c0.191,0.134,0.372,0.277,0.572,0.391
					c0.201,0.105,0.401,0.219,0.601,0.334c0.754,0.42,1.574,0.687,2.443,0.83c0.076-0.01,0.143,0.009,0.2,0.038
					c0.229,0.019,0.449,0.048,0.668,0.048c0.248,0.029,0.487,0.019,0.725,0.019c0.62,0,1.26-0.067,1.908-0.21
					c0.372-0.086,0.744-0.162,1.116-0.286v0.019c1.078-0.315,2.195-0.811,3.34-1.47l0.004-0.002c0,1.596-0.449,5.193-2.735,8.241
					c-0.318,0.424,0.171,0.794,0.536,0.607c1.199-0.615,2.589-1.535,4.259-3.437c2.474-2.817,4.053-6.597,4.609-9.263l-0.957,0.553
					l7.632-4.408c0.706-0.41,1.431-0.878,2.128-1.403c-0.057-0.258-0.095-0.515-0.133-0.773c-0.029-0.172-0.057-0.42-0.076-0.677
					c-0.029-0.191-0.057-0.42-0.067-0.668l-0.01-0.124c-0.019-0.172-0.029-0.334-0.029-0.506c-0.019-0.372-0.029-0.773-0.029-1.174
					c0-10.124,6.021-21.527,13.722-25.964l0.849-0.496C370.606,80.473,363.344,75.148,354.442,80.292z"/>
			</g>
			<g id="XMLID_173_">
				<path style="fill:#F0F0F0;" d="M381.388,89.373l-10.014,5.782c-6.775,3.912-12.29,14.449-12.29,23.483
					c0,0.37,0.011,0.735,0.032,1.079c0,0.2,0.021,0.372,0.032,0.566c0.011,0.179,0.032,0.352,0.054,0.525
					c0.021,0.201,0.043,0.403,0.075,0.598c0.128,0.952,0.342,1.826,0.62,2.606c0.043,0.16,0.096,0.301,0.161,0.449
					c0.074,0.199,0.149,0.398,0.246,0.585c0.085,0.193,0.171,0.371,0.267,0.544c0.085,0.179,0.181,0.351,0.288,0.503
					c0.032,0.067,0.064,0.12,0.096,0.158c0.181,0.28,0.374,0.539,0.577,0.792c0.118,0.146,0.235,0.278,0.363,0.403l0.385,0.377
					c0.128,0.125,0.267,0.23,0.406,0.335c0.139,0.105,0.278,0.21,0.427,0.295c0.15,0.085,0.288,0.175,0.449,0.254
					c0.15,0.085,0.299,0.155,0.46,0.219c0.16,0.064,0.32,0.128,0.481,0.178c0.01,0.008,0.01,0.008,0.01,0.008
					c0.289,0.09,0.588,0.159,0.887,0.215c0.053,0.012,0.096,0.016,0.15,0.028c0.16,0.021,0.332,0.037,0.502,0.038
					c0.171,0.029,0.353,0.024,0.545,0.013c0.406,0.008,0.834-0.04,1.283-0.128c0.32-0.043,0.652-0.134,0.983-0.226
					c0.812-0.241,1.657-0.615,2.511-1.108l3.371-1.946c0.79,1.482,2.133,2.657,4.801,2.951c1.661,0.183,3.274,0.027,4.473-0.743
					c0.365-0.235,0.449-0.918,0.131-0.975c-2.286-0.409-4.283-2.594-4.283-4.19l1.521-0.878c0.866-0.5,1.699-1.095,2.511-1.792
					v-0.014c0.278-0.232,0.556-0.492,0.833-0.752c0.492-0.455,0.973-0.961,1.432-1.497c0.182-0.205,0.363-0.409,0.545-0.642
					c0.171-0.198,0.331-0.405,0.502-0.618c0.043-0.067,0.096-0.141,0.149-0.2c0.652-0.861,1.272-1.775,1.839-2.743
					c0.149-0.257,0.299-0.514,0.449-0.772c0.15-0.257,0.289-0.523,0.428-0.788c0.139-0.266,0.267-0.539,0.406-0.805l0.384-0.821
					c0.129-0.273,0.246-0.555,0.363-0.823c0.214-0.48,0.406-0.975,0.577-1.459c0.032-0.09,0.064-0.18,0.096-0.269
					c0.107-0.275,0.203-0.559,0.289-0.836c0.182-0.547,0.342-1.081,0.503-1.644c0.353-1.344,0.63-2.701,0.791-4.033
					c0.032-0.232,0.053-0.458,0.075-0.685c0.021-0.198,0.043-0.395,0.053-0.587c0.011-0.206,0.032-0.403,0.032-0.603
					c0.021-0.369,0.032-0.745,0.032-1.116C393.679,89.63,388.164,85.462,381.388,89.373z"/>
			</g>
		</g>
	</g>
</g>
<g id="Characters">
	<g>
		<g>
			<path style="fill:#263238;" d="M301.055,221.651c-3.786-1.185-7.669,1.878-10.205,8.062c-2.536,6.184-7.873,21.894-8.658,26.086
				c-0.784,4.192,17.089,13.313,16.587,13.067C298.275,268.621,301.055,221.651,301.055,221.651z"/>
		</g>
		<path style="fill:#263238;" d="M292.738,367.108c-0.534,0.202-0.669,1.219-0.749,3.24c-0.061,1.53-0.389,4.199,1.403,4.732
			c1.791,0.533,4.415,0.261,5.564-1.181c1.433-1.799,2.401-3.383,4.446-5.578c1.774-1.904,3.693-3.682,4.409-6.353
			c0.647-2.414,0.108-3.46-1.538-4.162c-2.264-0.965-5.821,2.188-7.596,2.684C297.148,360.918,293.272,366.906,292.738,367.108z"/>
		<path style="fill:#FFA8A7;" d="M292.738,365.237v2.482c0,0,2.58,1.982,6.271,0.169c0.109-0.239,0.651-3.55,0.651-3.55
			L292.738,365.237z"/>
		<path style="fill:#263238;" d="M312.835,381.409c0,0-0.712,2.158-1.096,4.045c-0.305,1.5-0.742,4.008-0.217,5.136
			c0.526,1.128,2.575,1.857,5.752,1.833c2.058-0.016,5.265,1.382,7.46,2.607c2.268,1.266,6.984,1.769,9.383,1.488
			c2.827-0.332,5.755-1.971,6.212-3.142c0.457-1.171-0.15-2.386-6.812-5.225c-0.061-0.026-9.261-3.018-12.484-6.575L312.835,381.409
			z"/>
		<path style="fill:#FFA8A7;" d="M312.835,378.726c0,0,0.009,1.842,0,2.894c-0.009,1.052,1.234,2.621,4.451,2.506
			c2.26-0.081,3.837-0.688,3.748-2.549v-2.683L312.835,378.726z"/>
		<g>
			<path style="fill:#455A64;" d="M291.124,332.305c1.136-8.108,2.93-12.924,2.93-12.924s-0.886-11.151-1.311-21.723
				c-0.459-11.42,0.025-25.774-0.193-28.623c0,0,36.849-7.456,37.506,5.745c0.657,13.201-1.455,46.804-1.89,52.603
				c-0.435,5.799-1.438,10.928-2.636,20.327c-1.182,9.276-4.497,31.183-4.497,31.183c-4.21,2.276-8.199-0.168-8.199-0.168
				s-2.593-26.395-2.321-33.087c0.332-8.171,2.537-14.605,2.537-14.605s-0.699-10.885-1.316-20.353
				c-0.617-9.468-1.27-14.016-1.413-18.134l-0.793-0.393c0,0-0.808,16.334-1.244,22.133c-0.436,5.799-1.358,11.36-3.036,22.131
				c-1.455,9.344-5.79,29.116-5.79,29.116c-4.21,2.276-6.721-0.298-6.721-0.298S289.988,340.413,291.124,332.305z"/>
		</g>
		<g>
			<path style="fill:#37474F;" d="M310.322,292.548c0,0-8.939-4.405-13.413-8.378c0,0,4.154,5.853,9.607,8.448
				c0,0,1.94,20.29,1.93,19.888l1.12-19.989L310.322,292.548z"/>
		</g>
		<polygon style="fill:#FFA8A7;" points="318.278,217.47 316.098,229.471 305.257,228.679 307.534,215.075 		"/>
		<g>
			<path style="fill:#37474F;" d="M293.809,227.802c1.073-3.263,5.213-6.814,9.356-6.045c7.611,1.414,13.647,2.925,18.141,4.53
				c3.792,1.355,7.248,4.632,7.562,17.108l1.923,37.164l-4.587,0.987l-1.6-8.418l-0.747,8.418c-4.8,1.209-13.124,0.209-18.599-0.987
				c-11.397-2.49-12.772-7.218-12.772-7.218s-0.147-20.914,0.194-29.946C292.97,235.721,293.072,230.043,293.809,227.802z"/>
		</g>
		<path style="fill:#FFA8A7;" d="M326.304,203.248c0,0,2.624,3.887,2.291,4.304c-0.334,0.417-1.974,0.873-1.974,0.873
			L326.304,203.248z"/>
		<path style="fill:#FFA8A7;" d="M318.28,190.93c2.527,1.275,6.896,3.635,8.103,12.889c1.237,9.499-0.392,12.56-1.677,13.82
			c-0.868,0.849-5.583,0.9-7.945,0.191c-2.956-0.887-9.625-3.421-12.666-8.301c-3.576-5.742-4.376-13.432-0.34-16.488
			C309.435,188.74,316.141,189.851,318.28,190.93z"/>
		<path style="fill:#37474F;" d="M326.908,194.112c-0.832,2.28-2.23,7.856-8.049,10.187c0,0-0.831-3.555-3.819-3.177
			c-3.008,0.38-3.499,4.192-1.662,6.557c1.838,2.364,3.618,1.514,3.618,1.514s0.4,5.098-3.003,7.409c0,0-4.108,2.602-8.461,0.603
			c-1.959-0.9-4.727-5.59-6.353-9.439c-3.439-8.143-3.93-14.673,1.266-16.731c0.64-3.702,2.304-5.093,5.655-5.784
			c7.214-1.487,12.665,3.252,18.717,2.416C327.975,187.229,327.858,191.508,326.908,194.112z"/>
		<path style="fill:#37474F;" d="M300.328,192.275l-3.401-2.109c0.582-0.939,1.816-1.228,2.755-0.646
			C300.621,190.102,300.91,191.336,300.328,192.275z"/>
		<g>
			<g id="XMLID_31_">
				<path style="fill:#455A64;" d="M317.485,221.837l1.234,3.59c0,0-0.904,1.603-4.779,1.681c-3.875,0.078-7.987-1.146-9.274-2.795
					c-1.029-1.318-0.725-2.411-0.725-2.411s1.537-3.4,2.995-3.249l-0.246,1.471c0,0,0.331,1.213,3.845,2.148
					C315.992,223.725,317.485,221.837,317.485,221.837z"/>
			</g>
		</g>
		<g id="XMLID_30_">
			<path style="fill:#FFA8A7;" d="M348.577,245.702c1.564-1.787,2.161-5.762,4.246-8.477c2.036-2.652,2.843-4.713,3.667-3.523
				c1.087,1.571-1.368,4.716-0.823,5.03c0.544,0.314,2.588,4.459,2.793,6.763c0.206,2.304-5.892,8.091-5.892,8.091L348.577,245.702z
				"/>
		</g>
		<g>
			<g id="XMLID_222_">
				<path style="fill:#455A64;" d="M317.485,221.837c0,0,0.693-0.084,1.234,0.712c0.541,0.796,1.645,3.413,1.645,3.413l-1.645-0.536
					L317.485,221.837z"/>
			</g>
		</g>
		<g id="XMLID_356_">
			<path style="fill:#FFA8A7;" d="M355.498,238.38c0,0,7.372-0.64,8.447-0.02c1.074,0.62,0.75,3.829,0,5.786
				c-0.75,1.957-4.511,3.231-8,5.594C355.936,249.404,355.498,238.38,355.498,238.38z"/>
		</g>
		<g>
			<g id="XMLID_174_">
				<path style="fill:#37474F;" d="M320.363,225.962c3.168,1.103,5.941,2.378,8.897,7.935c3.799,7.14,11.032,18.564,11.032,18.564
					l8.285-7.309c0,0,1.253-1.215,3.583,2.635c2.33,3.851,0.847,7.104,0.847,7.104s-9.563,11.229-11.402,12.936
					c-1.839,1.707-4.859,0.38-6.829-2.306c-1.97-2.685-14.413-18.245-14.413-18.245S313.567,238.34,320.363,225.962z"/>
			</g>
		</g>
	</g>
	<g>
		<path style="fill:#37474F;" d="M382.258,207.336h23.612c1.856,0,3.36-1.504,3.36-3.36v-37.517c0-6.147-4.983-11.131-11.131-11.131
			h-8.07c-6.147,0-11.131,4.983-11.131,11.131v37.517C378.898,205.831,380.403,207.336,382.258,207.336z"/>
		<path style="fill:#F28F8F;" d="M378.281,194.525c-2.295,6.758-6.133,26.171-6.133,26.171s-8.044,9.787-10.608,12.152
			c-1.428,1.317-4.647,3.686-4.647,3.686l5.85,4.308c5.405-4.007,11.848-10.162,14.839-13.357c1.019-1.089,1.736-2.42,2.074-3.873
			l3.999-17.16c0,0-0.025-13.802,2.116-15.614c2.142-1.811,2.713-2.192,2.713-2.192C385.78,188.453,380.083,189.219,378.281,194.525
			z"/>
		<path style="fill:#27DEBF;" d="M389.742,188.452c-3.731-0.429-8.514-0.352-10.843,3.823c-2.329,4.175-6.209,25.684-6.209,25.684
			s3.667,2.852,7.631,2.804L389.742,188.452z"/>
		<g>
			<g>
				<path style="fill:#27DEBF;" d="M379.367,208.537c0,0,1.113,4.916,0.777,9.785c-0.298,4.315-3.274,11.857-3.274,11.857
					s2.325,2.564,8.902,1.535c5.349-0.837,3.459-16.979,0.383-20.107C383.079,208.48,379.367,208.537,379.367,208.537z"/>
			</g>
			<path style="opacity:0.3;" d="M379.367,208.537c0,0,1.113,4.916,0.777,9.785c-0.298,4.315-3.274,11.857-3.274,11.857
				s2.325,2.564,8.902,1.535c5.349-0.837,3.459-16.979,0.383-20.107C383.079,208.48,379.367,208.537,379.367,208.537z"/>
		</g>
		<path style="fill:#37474F;" d="M391.73,322.742c0.035,0.645-0.033,1.123-0.532,2.099c-0.603,1.18-2.215,3.2-3.465,4.543
			c-1.853,1.991-4.624,4.343-6.608,6.076c-1.104,0.964-1.146,2.42,0.433,2.932c1.579,0.512,5.073,0.731,8.689-1.213
			c1.97-1.059,4.781-5.954,6.423-6.695c1.886-0.851,2.946-1.278,3.582-2.147c0.953-1.299,1.199-2.274,0.384-3.79
			c-0.889-1.654-2.224-4.207-2.774-3.922l0.171,0.527c-0.433,1.349-4.112,2.921-5.999,2.546L391.73,322.742z"/>
		<path style="fill:#FFA8A7;" d="M411.008,266.316c0.857-9.026,3.294-23.476,0.791-34.194l-33.194,1.757
			c-0.922,10.574-1.977,43.571-0.845,47.348c1.34,4.458,13.309,35.328,13.967,41.54c-0.044,1.109-0.044,1.109-0.527,2.075
			c-0.604,1.175-2.218,3.195-3.47,4.546c-0.9,0.966-2.021,2.02-3.163,3.042c-0.11,0.176-0.165,0.34-0.165,0.483
			c0,1.032,2.515,1.307,3.986,0.878c1.801-0.527,3.327-1.889,4.546-3.492c0.846-1.131,2.756-3.305,3.964-4.93
			c0.516-0.681,0.911-1.263,1.054-1.636c0.428-1.065,0.307-1.823,0.154-2.339l-0.077-0.242c-0.651-2.026-1.052-4.121-1.197-6.244
			c-0.465-6.806-1.628-22.541-2.712-26.731c-1.395-5.392-3.393-8.763-3.393-8.763l3.788-29.483c0,0,0.406,25.991,1.581,32.623
			c0.934,5.315,1.296,11.958,2.383,21.061c1.032,8.719,2.163,24.081,2.163,24.081c0.022,0.022,0.055,0.033,0.088,0.044V335h6.314
			v-4.257c0-1.925,0.157-3.846,0.471-5.745c0.959-5.793,3.082-19.068,3.515-23.554c0.681-7.126-1.889-16.076-1.889-16.076
			S410.174,275.101,411.008,266.316z"/>
		<g>
			<path style="fill:#27DEBF;" d="M399.302,188.764c0,0,8.932,1.027,10.001,1.507c-8.379,5.894-1.596,19.012-1.596,19.012
				l-3.212,10.062c3.572,4.572,6.657,7.293,8.561,12.308c2.127,5.6,4.03,13.925,3.507,30.964c-8.012,6.022-32.34,5.351-41.828,0
				c0,0,1.603-15.066,3.495-26.778c1.248-7.725,4.205-16.147,3.696-18.972c-3.755-11.557-3.986-13.641-3.32-16.219
				c1.875-7.256,9.272-12.164,11.098-12.164L399.302,188.764z"/>
			<path style="opacity:0.6;fill:#FFFFFF;" d="M399.302,188.764c0,0,8.932,1.027,10.001,1.507
				c-8.379,5.894-1.596,19.012-1.596,19.012l-3.212,10.062c3.572,4.572,6.657,7.293,8.561,12.308
				c2.127,5.6,4.03,13.925,3.507,30.964c-8.012,6.022-32.34,5.351-41.828,0c0,0,1.603-15.066,3.495-26.778
				c1.248-7.725,4.205-16.147,3.696-18.972c-3.755-11.557-3.986-13.641-3.32-16.219c1.875-7.256,9.272-12.164,11.098-12.164
				L399.302,188.764z"/>
		</g>
		<path style="fill:#37474F;" d="M400.727,331.888v-0.903c-0.18,1.376-2.008,5.619-4.513,7.904c-1.992,1.816-4.708,3.915-5.399,5.94
			c-0.719,2.106,3.209,2.94,5.785,2.683c3.014-0.301,5.366-2.112,6.48-3.391c1.639-1.879,1.61-3.162,2.374-4.196
			c0.764-1.034,2.526-2.189,2.94-3.386c0.227-0.658-0.043-2.098-0.362-3.315c-0.293-1.116-0.61-2.344-0.991-2.239
			c-0.001,0.136,0,0.688,0,0.688c-0.458,0.508-1.727,1.012-3.157,1.067C402.96,332.776,400.719,332.592,400.727,331.888z"/>
		<path style="fill:#FFA8A7;" d="M407.041,331.673c-0.458,0.508-1.727,1.012-3.156,1.067c-0.924,0.035-3.165-0.148-3.157-0.852
			v-0.903c-0.18,1.376-2.008,5.618-4.513,7.904c-0.477,0.435-0.996,0.886-1.517,1.348c-1.059,1.18-0.758,2.21,1.73,2.424
			c2.49,0.215,4.678-1.287,6.567-3.605C404.882,336.738,407.041,331.673,407.041,331.673z"/>
		<path style="fill:#FFA8A7;" d="M383.88,161.462c-1.602,0.947-3.582,4.976-3.387,13.422c0.166,7.159,2.486,8.927,3.651,9.437
			c1.165,0.51,3.412,0.199,5.597-0.165v4.296c0,0-3.019,3.507-2.829,5.477c0.19,1.97,4.36,2.435,7.185,0.511
			c2.825-1.925,5.205-5.676,5.205-5.676l-0.049-9.878c0,0,1.286,1.249,3.465-0.657c1.8-1.574,2.406-4.227,1.004-5.65
			c-1.402-1.424-3.995-1.036-4.988,0.994c0,0-1.214-3.372-6.246-5.016C387.941,167.07,385.47,165.359,383.88,161.462z"/>
		<path style="fill:#37474F;" d="M388.486,173.085c-0.026,0.516,0.356,0.953,0.852,0.977c0.497,0.024,0.92-0.376,0.946-0.891
			c0.026-0.516-0.356-0.953-0.852-0.977C388.936,172.17,388.512,172.57,388.486,173.085z"/>
		<path style="fill:#F28F8F;" d="M388.246,179.154l-2.091,0.667c0.174,0.598,0.782,0.934,1.36,0.75
			C388.092,180.386,388.42,179.752,388.246,179.154z"/>
		<path style="fill:#37474F;" d="M381.106,170.321l1.821-1.262c-0.332-0.52-1.01-0.659-1.513-0.31
			C380.911,169.097,380.773,169.801,381.106,170.321z"/>
		<path style="fill:#37474F;" d="M391.106,170.988l-1.822-1.262c0.332-0.52,1.01-0.659,1.513-0.311
			C391.3,169.764,391.438,170.468,391.106,170.988z"/>
		<path style="fill:#37474F;" d="M381.525,172.434c-0.026,0.516,0.356,0.953,0.852,0.977c0.496,0.024,0.92-0.376,0.946-0.891
			c0.026-0.516-0.356-0.953-0.852-0.977C381.975,171.52,381.551,171.919,381.525,172.434z"/>
		<polygon style="fill:#F28F8F;" points="385.772,171.919 385.629,177.338 382.777,176.455 		"/>
		<path style="fill:#F28F8F;" d="M389.742,184.156c2.302-0.302,7.038-1.663,7.777-3.535c0,0-0.246,1.177-1.661,2.389
			c-1.415,1.213-6.116,2.579-6.116,2.579V184.156z"/>
		<polygon style="fill:#27DEBF;" points="406.046,213.85 399.744,222.39 404.495,219.345 		"/>
		<g id="XMLID_357_">
			<path style="fill:#F28F8F;" d="M356.342,236.535c-1.348,1.745-2.182,5.124-2.893,6.261c-0.71,1.137-1.563,2.132,0,2.345
				c1.563,0.213,3.837-2.842,4.689-4.689c0.853-1.847,2.273-2.35,2.273-2.35c-0.736-0.247-0.347-3.184-0.866-3.589
				C359.546,234.513,356.893,235.599,356.342,236.535z"/>
		</g>
		<g id="XMLID_355_">
			<path style="fill:#F28F8F;" d="M355.944,249.74c1.409-1.055,1.452-2.338,1.729-4.395c0.277-2.057,5.916-4.262,6.094-2.731
				c0.177,1.532,0.693,2.81-1.04,4.662C360.993,249.128,358.524,251.115,355.944,249.74z"/>
		</g>
		<g id="XMLID_172_">
			<path style="fill:#27DEBF;" d="M399.302,188.764c0,0,8.361,0.724,10.001,1.507c1.64,0.783,4.367,5.495,1.924,12.352
				c-2.443,6.857-4.655,14.905-4.405,16.526c0.25,1.621,6.076,9.99,6.076,9.99c-1.694,1.095-3.49,2.227-5.362,2.575l-2.988-6.522
				l0.701,6.931c0,0-5.373,1.302-9.213,0.968C396.037,233.091,393.203,206.511,399.302,188.764z"/>
		</g>
		<g id="XMLID_397_">
			<path style="fill:#FFA8A7;" d="M419.905,221.413c0.661-3.946,0.006-5.233-1.388-9.098l-7.048,4.531c0,0,1.137,2.909,1.044,4.568
				c-0.064,1.132-1.611,12.435-3.064,16.378c-0.257,0.698-0.78,1.266-1.437,1.616c-1.762,0.94-2.517,1.979-3.881,3.223
				c-1.067,0.974-1.934,1.176-1.825,1.516c0.139,0.438,0.803,1.177,2.049,0.888c0.627-0.145,1.453-0.572,2.486-1.135
				c0,0-0.849,2.027-2.744,4.05c-2.568,2.741-2.794,4.517,1.985,4.888c2.995,0.232,5.513-1.452,8.221-7.9
				c0.78-1.858,1.44-4.758,2.073-7.232C417.815,232.073,419.24,225.379,419.905,221.413z"/>
		</g>
		<g id="XMLID_221_">
			<path style="fill:#27DEBF;" d="M409.303,190.271c3.369,1.513,4.327,4.492,5.574,8.872s5.175,17.518,5.175,17.518
				s-3.366,4.029-8.044,2.878l-5.962-14.574C406.046,204.965,403.246,195.46,409.303,190.271z"/>
		</g>
	</g>
</g>
</svg>
