<svg xmlns="http://www.w3.org/2000/svg" viewBox="0 0 143.29 28.5"><defs><style>.cls-1{fill:#00a651;}.cls-2{fill:#8dc63f;}.cls-3{fill:#fff;}</style></defs><g id="Layer_2" data-name="Layer 2"><g id="Layer_1-2" data-name="Layer 1"><path class="cls-1" d="M85.68,6.54c0,.37-.05.74-.05,1.11,0,3.46,0,6.91,0,10.37,0,1.36-.08,1.35-2,1.44-1.1.05-1.54-.34-1.55-1.45Q82,10.5,81.87,3C81.81.55,81.78.54,84.15.39s2.16-.64,3.49,2c1.26,2.49,2.57,4.95,3.88,7.43.17.33.42.63.77,1.15.52-.71,1-1.25,1.36-1.85Q96,5.3,98.28,1.43c.43-.73.84-1.21,1.81-1a5.14,5.14,0,0,0,1.74-.09c.75-.09,1,.16,1,1-.07,5.44-.1,10.87-.14,16.31,0,1.79-1.25,2.53-2.84,1.6a1.76,1.76,0,0,1-.5-1.28c0-2.91,0-5.82,0-8.73a21.51,21.51,0,0,0-.21-2.27l-.34-.13c-.66,1-1.34,1.92-2,2.89-1.12,1.73-2.14,3.52-3.34,5.19s-2.18,1.52-3.15-.26C89.08,12.33,88,10,86.76,7.67c-.22-.43-.48-.83-.73-1.24Z"/><path class="cls-2" d="M18.16,12.11c.44,3.28-1.11,5.1-4.05,6.47-6,2.8-12.6,0-13.89-6.53C-1,5.85,3.08-.25,10,0a12,12,0,0,1,6.39,1.93c1.2.79,1.23,1.26.06,2.16-.28.21-.57.41-.86.61C14,5.85,14,5.85,12.53,4.57,10.46,2.7,6,3.71,4.5,6.36a6.77,6.77,0,0,0,1.93,8.81,6.27,6.27,0,0,0,7.18-.39,2.5,2.5,0,0,0,.69-1c.44-1.42.11-1.85-1.37-1.78-.93,0-1.86.19-2.78.26-.72.06-1.11-.26-1.1-1A1.85,1.85,0,0,0,9,11c-.11-2.28-.11-2.23,2.12-2.14,1.82.07,3.65,0,5.48,0,1.39,0,1.54.14,1.52,1.52Z"/><path class="cls-2" d="M67.87,13.23a4.44,4.44,0,0,0,6.75,2.33c1-.66,3.42.23,3.6,1.33a.83.83,0,0,1-.27.57A8.7,8.7,0,0,1,69,19a9.14,9.14,0,0,1-5.07-8c.15-2.79,2.71-6.14,5.25-6.83,3.51-1,6.93.16,8.7,3A15.22,15.22,0,0,1,79.54,11c.43,1.53-.1,2-1.71,2.06-2.76,0-5.51,0-8.26.05C69,13.09,68.51,13.17,67.87,13.23Zm7.48-3a3.53,3.53,0,0,0,0-.67C75,7.92,73.52,6.94,71.58,6.82c-2.23-.12-3,1.07-3.84,2.61-.06.14.33.74.51.74C70.6,10.22,73,10.2,75.35,10.2Z"/><path class="cls-1" d="M114.88,9.92a3.23,3.23,0,0,0-3.57-2.75c-1.16.06-2.31.32-3.47.42-.39,0-1,0-1.15-.27a1.26,1.26,0,0,1,.14-1.16,4.28,4.28,0,0,1,1.56-1.47c2.42-.94,4.85-1.08,7.11.52.15.11.32.2.35.22a5.19,5.19,0,0,1,1.32-.77c1.36-.27,1.67,0,1.69,1.39,0,3.92,0,7.84.12,11.76,0,1.05-.29,1.42-1.38,1.42s-2.2-.09-2.42-1.56A24.54,24.54,0,0,1,113,18.94a5.8,5.8,0,0,1-8.23-5.25,2.9,2.9,0,0,1,1.47-2.61C109.05,9.43,110.85,8.63,114.88,9.92Zm-3.17,1.23a14.48,14.48,0,0,0-2.36.72c-1.31.62-1.58,1.55-1,2.89.5,1.17,2.53,2,4.13,1.7a3.63,3.63,0,0,0,2.84-3A1.54,1.54,0,0,0,114,11.59Z"/><path class="cls-2" d="M47.21,11.38c-.06,4.68-3.32,8.06-7.75,8a8.29,8.29,0,0,1-8.07-8.51,7.51,7.51,0,0,1,7.93-7.27C43.56,3.69,47.26,7.33,47.21,11.38Zm-12.47-.82c0,3.15,2,5.46,4.66,5.46a4.21,4.21,0,0,0,4.31-4.47,4.79,4.79,0,0,0-4.83-4.66C36.76,6.94,34.42,8.7,34.74,10.56Z"/><path class="cls-1" d="M134.6,12.41c.08-1.21.15-2.53.27-3.85.07-.73-.17-1-1-1.07-1.93-.11-2.47-1-1.57-2.78a1.84,1.84,0,0,1,1.44-.63c1.23,0,1.4-.49,1.17-1.58C134.49.25,134.54.24,136.8.21s2.28,0,2.3,2.23c0,1.84,0,1.84,1.82,1.83h.24c2.6,0,2.15-.07,2,2.19,0,.71-.36,1-1,1-.89,0-1.79.06-2.68,0s-1.13.25-1.13,1.06c0,1.51-.11,3-.12,4.54,0,2.06.87,3,3,3,.74,0,1.53-.15,1.63,1a1.79,1.79,0,0,1-1.45,2.17,5.43,5.43,0,0,1-6.76-4.91C134.56,13.68,134.6,13.09,134.6,12.41Z"/><path class="cls-2" d="M56.85,19.22a7.6,7.6,0,0,1-7.77-5.8A7.76,7.76,0,0,1,52.23,5c2.92-2.08,7.94-1.35,10,1.49a1.13,1.13,0,0,1,.26.73c-.12.79-2.78,1.52-3.4,1a4.08,4.08,0,0,0-5-.56c-1.74,1.16-2.23,2.77-1.48,4.89,1.3,3.63,4.1,4.52,7.2,2.21,1-.74,1.51.09,2.13.45,1.3.78,1.31,1.06.2,2C60.6,18.54,58.87,19.53,56.85,19.22Z"/><path class="cls-2" d="M24.36,4c-.05.57-.1,1-.12,1.4s0,.74,0,1A43,43,0,0,1,28.18,4a8.54,8.54,0,0,1,2.57-.38,18.54,18.54,0,0,1,0,2.24c-.25,1.82-.35,1.87-2.22,1.86-2.49,0-3.86,1.24-3.92,3.79,0,2,.1,4,.16,6.05.06,1.77-.08,1.9-1.8,1.72l-.82-.08c-.85-.05-1.13-.41-1.13-1.34q0-6.22-.2-12.45c0-1,.16-1.38,1.13-1.36C22.7,4,23.5,4,24.36,4Z"/><path class="cls-1" d="M125.67,6.82c.45-.56.8-.91,1.06-1.32a3.91,3.91,0,0,1,3.82-1.75,1.75,1.75,0,0,1,.54.1,25.71,25.71,0,0,1-.06,3c0,.23-.48.46-.78.62a2,2,0,0,1-.7,0,4,4,0,0,0-4,4.1c-.07,2.09,0,4.19,0,6.28,0,1-.3,1.38-1.32,1.35-2.35-.06-2.32,0-2.29-2.38,0-3.89.08-7.77,0-11.65,0-.89.25-1.2,1.11-1.14s1.87-.27,2.35.13S125.62,5.72,125.67,6.82Z"/><path class="cls-3" d="M111.17,25.37c.52-.84.84-1.46,1.25-2,.18-.23.57-.3.86-.44a2.38,2.38,0,0,1,.36.78c.06,1.16.09,2.32.07,3.48a3,3,0,0,1-.37.93L113,28l-.24-2.22-.27-.08-1.08,1.65a.61.61,0,0,1-.23-.1c-.38-.37-.76-.76-1.14-1.14-.17.48-.3,1-.5,1.43a6.13,6.13,0,0,1-.56.87c-.17-.3-.49-.61-.47-.91,0-1.3.18-2.61.35-3.91,0-.25.32-.47.5-.71a3.64,3.64,0,0,1,.71.64C110.44,24.06,110.73,24.62,111.17,25.37Z"/><path class="cls-3" d="M70.46,28.24c-.14-.51-.44-1-.32-1.27a25,25,0,0,1,1.71-3.72c.36-.61,1-.51,1.31.25.42,1.16.81,2.34,1.13,3.53a1.25,1.25,0,0,1-.33.88c0,.08-.52,0-.67-.17-1-1-1.26-1-2.25.05C70.91,27.92,70.75,28,70.46,28.24Z"/><path class="cls-3" d="M44,25.87l.52-3.16.44,0A5.37,5.37,0,0,1,45.31,24c0,1.16,0,2.33-.07,3.49a3,3,0,0,1-.35.9,5.45,5.45,0,0,1-.79-.72c-.42-.58-.77-1.21-1.16-1.82l-.3.16-.33,2.44h-.48a7.25,7.25,0,0,1-.26-1.21q-.09-1.45-.06-2.91a2.84,2.84,0,0,1,.33-.89c.33.14.79.19,1,.44A17.17,17.17,0,0,1,44,25.87Z"/><path class="cls-3" d="M104.17,28.22c0-1.51,0-2.89,0-4.27a1.26,1.26,0,0,1,.79-.9,6.38,6.38,0,0,1,1.76.22,4,4,0,0,1-.49,1.18c-.17.2-.62.16-.94.4l1.69.44,0,.39-1.18.2c-.14.56-.35,1.17.61,1.18s.77.53.73,1.16Z"/><path class="cls-3" d="M57.73,26.15a2.17,2.17,0,0,1-2.26,2.16A2.78,2.78,0,0,1,53,25.58a2.39,2.39,0,0,1,2.44-2.29A2.62,2.62,0,0,1,57.73,26.15ZM55.57,27c.64-.06,1.3-.25,1.33-1.18a1.46,1.46,0,0,0-1.38-1.56c-1,0-1.33.68-1.32,1.57S54.64,27.05,55.57,27Z"/><path class="cls-3" d="M38.06,26.05a2,2,0,0,1-2,2.18,2.56,2.56,0,0,1-2.44-2.49,3.19,3.19,0,0,1,2.46-2.61C37.25,23.1,38.06,24.29,38.06,26.05Zm-.57-.39c-.45-.46-.84-1.18-1.36-1.3-.85-.19-1.28.5-1.33,1.35A1.07,1.07,0,0,0,35.93,27C36.65,27,37.23,26.77,37.49,25.66Z"/><path class="cls-3" d="M82.26,25.27a7.09,7.09,0,0,0-1.21.38c-.26.12-.44.41-.66.62a2.93,2.93,0,0,0,.69.55c.47.18,1.34-.25,1.27.65,0,.24-1,.57-1.49.59-1.77.07-1.77,0-1.7-1.78,0-.81,0-1.62.06-2.43,0-.61.28-.81.89-.69.45.09.93,0,1.38.1a5,5,0,0,1,1,.38,6.85,6.85,0,0,1-1,.62,3.6,3.6,0,0,1-.89.16l0,.3,1.6.2Z"/><path class="cls-3" d="M69.78,24c-.46.22-.55.29-.66.32l-1.43.4c.35.37.73.72,1,1.12s.73.89.62,1.09A3.36,3.36,0,0,1,68,28.34c-.41.19-1.08-.14-1.63-.23.12-.33.14-.79.37-.95s.71-.11,1.17-.16c-.46-1.13-2.75-1.34-1.49-3a2.88,2.88,0,0,1,1.86-.81C68.69,23.11,69.15,23.59,69.78,24Z"/><path class="cls-3" d="M85.75,26.71l2,.5c.18-.8,0-1.15-.75-1.35-.43-.11-1.1-.5-1.1-.76a1.94,1.94,0,0,1,.73-1.31A4.82,4.82,0,0,1,88.45,23c.25-.07.58.22.88.35a5.08,5.08,0,0,1-.58.72c-.39.32-.82.6-1.23.89a6.58,6.58,0,0,1,1.25.61c.31.25.71.66.71,1a1.59,1.59,0,0,1-1.6,1.67A1.82,1.82,0,0,1,85.75,26.71Z"/><path class="cls-3" d="M98.24,24.18,97,24.27l-.17.28a7.82,7.82,0,0,0,1.31.83c.9.37.54,1,.37,1.56-.27.89-.86,1.58-1.84,1.38-.51-.1-.93-.69-1.38-1.06a4.09,4.09,0,0,1,.81-.28,3.33,3.33,0,0,1,.82.07,4.67,4.67,0,0,0-.22-.93c-.09-.19-.37-.28-.52-.45-.34-.37-1-1-.91-1.12A4.89,4.89,0,0,1,97,23C97.66,22.76,98.21,23.28,98.24,24.18Z"/><path class="cls-3" d="M30,28.11a2.92,2.92,0,0,1-.33-.89,18.44,18.44,0,0,1,0-2.68c0-.42.26-1.11.52-1.18a2,2,0,0,1,2.49.71,1.27,1.27,0,0,1-.17,1.78c-.26.24-.56.43-.82.66C31.14,27,30.66,27.44,30,28.11Z"/><path class="cls-3" d="M91.92,24.5l2-1.56.34.27a5.45,5.45,0,0,1-.41,1.09,5,5,0,0,0-1,3.47c0,.17-.25.39-.39.58a2.32,2.32,0,0,1-.64-.51,1.51,1.51,0,0,1,0-.68,3.08,3.08,0,0,0-1.22-2.74c-.32-.23-.42-.76-.58-1.17,0,0,.36-.29.44-.25a6.89,6.89,0,0,1,1,.78A5.82,5.82,0,0,1,91.92,24.5Z"/><path class="cls-3" d="M61.73,26c-1.31.26-2.43.68-1.88,2.41h-.42c-.22-.26-.56-.5-.63-.8a9.35,9.35,0,0,1-.21-1.84c-.11-2.24-.1-2.25,2.11-2.62a2.42,2.42,0,0,1,.8.18c-.17.31-.27.71-.52.9s-.69.11-1,.25a2.77,2.77,0,0,0-.63.52,3.07,3.07,0,0,0,.71.34c.51.11,1,.15,1.53.22Z"/><path class="cls-3" d="M101.36,28.5c-1.17-1.51.36-3.77-2.17-4.78a6.83,6.83,0,0,1,1.29-.6,3.07,3.07,0,0,1,1.28,0,6.85,6.85,0,0,1,1.2.42c-.25.29-.52.57-.74.88a2,2,0,0,0-.41.87c-.06.69,0,1.4,0,2.09A4.57,4.57,0,0,1,101.36,28.5Z"/><path class="cls-3" d="M47.32,24.32l-1.51-.11L45.7,24c.22-.17.43-.45.68-.48a21.52,21.52,0,0,1,2.54-.17.76.76,0,0,1,.59.37c.07.26,0,.8-.14.83-1.13.3-.73,1.18-.78,1.88a5.46,5.46,0,0,1,0,1.15c-.08.26-.41.45-.62.67-.21-.24-.57-.46-.59-.71C47.28,26.48,47.32,25.45,47.32,24.32Z"/><path class="cls-3" d="M76.22,26.71a8.47,8.47,0,0,1,1.41.18c.24.07.41.37.61.57-.21.19-.4.52-.62.55A5.44,5.44,0,0,1,76,28c-.76-.13-1.26-.38-.93-1.4a12.72,12.72,0,0,0,.23-2.64,10.34,10.34,0,0,1,.33-1.22C76.68,24.11,76,25.4,76.22,26.71Z"/><path class="cls-3" d="M40.2,22.72c0,1.9.11,3.48.12,5.05,0,.2-.26.41-.44.57s-.4-.18-.41-.29c0-1.6,0-3.21,0-4.82C39.5,23.15,39.72,23.07,40.2,22.72Z"/><path class="cls-3" d="M50.05,25.55c.6,0,1.21-.09,1.81-.07.13,0,.29.31.36.5s-.13.34-.21.34c-.65,0-1.31,0-2-.06Z"/><path class="cls-3" d="M65.12,26.39l-2.25-.28.06-.51a1.86,1.86,0,0,1,2.28.26Z"/></g></g></svg>