<svg xmlns="http://www.w3.org/2000/svg" viewBox="0 0 141.99 27.06"><defs><style>.cls-1{fill:#00a651;}.cls-2{fill:#8dc63f;}.cls-3{fill:#fff;}</style></defs><g id="Layer_2" data-name="Layer 2"><g id="Layer_1-2" data-name="Layer 1"><path class="cls-1" d="M81.35,6.26c0,.35,0,.7,0,1,0,3.29,0,6.57,0,9.85,0,1.29-.08,1.28-1.89,1.37-1,0-1.46-.33-1.48-1.38,0-4.76-.14-9.51-.24-14.26C77.68.57,77.65.56,79.9.42s2-.61,3.31,1.9c1.19,2.36,2.44,4.7,3.68,7,.17.32.4.6.73,1.09.5-.67.95-1.18,1.3-1.76,1.48-2.42,3-4.84,4.39-7.29.41-.69.8-1.15,1.72-.95A5.13,5.13,0,0,0,96.68.38c.72-.1,1,.14,1,.9-.07,5.16-.1,10.32-.13,15.48,0,1.7-1.19,2.4-2.7,1.52a1.66,1.66,0,0,1-.47-1.22c0-2.76,0-5.52,0-8.29,0-.72-.13-1.44-.2-2.15l-.33-.12c-.62.91-1.27,1.82-1.87,2.74-1.06,1.64-2,3.35-3.17,4.93s-2.07,1.44-3-.25c-1.18-2.17-2.25-4.39-3.38-6.59-.21-.4-.47-.78-.7-1.18Z"/><path class="cls-2" d="M17.24,11.5c.42,3.12-1,4.84-3.84,6.14-5.7,2.65-12,0-13.19-6.2C-1,5.56,2.93-.23,9.48,0a11.45,11.45,0,0,1,6.06,1.83c1.14.75,1.17,1.2.06,2.06l-.81.57c-1.54,1.08-1.54,1.08-2.89-.13-2-1.78-6.23-.82-7.63,1.7A6.44,6.44,0,0,0,6.1,14.41,6,6,0,0,0,12.92,14a2.26,2.26,0,0,0,.65-1c.42-1.34.11-1.75-1.3-1.69-.88,0-1.76.18-2.64.25-.67.06-1.05-.24-1-.95a1.77,1.77,0,0,0,0-.23c-.11-2.16-.11-2.11,2-2,1.73.07,3.46,0,5.2,0,1.32,0,1.46.13,1.44,1.45Z"/><path class="cls-2" d="M64.44,12.59a4.21,4.21,0,0,0,6.41,2.21c.91-.62,3.24.22,3.42,1.26a.77.77,0,0,1-.26.55,8.29,8.29,0,0,1-8.51,1.46,8.66,8.66,0,0,1-4.81-7.63c.14-2.65,2.58-5.82,5-6.48a7.15,7.15,0,0,1,8.27,2.88,14.88,14.88,0,0,1,1.58,3.61c.4,1.46-.1,2-1.63,2l-7.84,0C65.55,12.46,65.05,12.53,64.44,12.59Zm7.1-2.87a3.21,3.21,0,0,0,0-.64A3.57,3.57,0,0,0,68,6.51c-2.12-.12-2.89,1-3.64,2.47-.07.13.31.7.48.71C67,9.73,69.26,9.72,71.54,9.72Z"/><path class="cls-1" d="M130.78,12.59a4.21,4.21,0,0,0,6.41,2.21c.91-.62,3.24.22,3.42,1.26a.77.77,0,0,1-.26.55,8.29,8.29,0,0,1-8.51,1.46A8.66,8.66,0,0,1,127,10.44c.14-2.65,2.58-5.82,5-6.48a7.15,7.15,0,0,1,8.27,2.88,14.88,14.88,0,0,1,1.58,3.61c.4,1.46-.1,2-1.63,2l-7.84,0C131.89,12.46,131.39,12.53,130.78,12.59Zm7.1-2.87a3.21,3.21,0,0,0,0-.64,3.57,3.57,0,0,0-3.57-2.57c-2.11-.12-2.89,1-3.64,2.47-.07.13.31.7.48.71C133.37,9.73,135.61,9.72,137.88,9.72Z"/><path class="cls-1" d="M109.07,9.6A3.06,3.06,0,0,0,105.68,7c-1.1.06-2.19.31-3.29.4-.37,0-.93,0-1.09-.26a1.16,1.16,0,0,1,.13-1.1,4,4,0,0,1,1.48-1.39c2.3-.9,4.6-1,6.75.49a2.85,2.85,0,0,0,.34.2,4.9,4.9,0,0,1,1.25-.73c1.28-.25,1.58,0,1.6,1.33,0,3.72,0,7.44.12,11.16,0,1-.28,1.35-1.32,1.35s-2.08-.09-2.3-1.49a21,21,0,0,1-2,1.21,5.51,5.51,0,0,1-7.81-5,2.75,2.75,0,0,1,1.4-2.48C103.53,9.14,105.24,8.38,109.07,9.6Zm-3,1.16a14.07,14.07,0,0,0-2.24.69,1.83,1.83,0,0,0-.95,2.74c.46,1.11,2.4,1.91,3.91,1.62a3.45,3.45,0,0,0,2.7-2.86,1.46,1.46,0,0,0-1.26-1.77Z"/><path class="cls-2" d="M44.82,11.05c0,4.44-3.15,7.65-7.35,7.61a7.89,7.89,0,0,1-7.67-8.08,7.14,7.14,0,0,1,7.53-6.91A7.68,7.68,0,0,1,44.82,11.05ZM33,10.26c0,3,1.9,5.19,4.42,5.19A4,4,0,0,0,41.5,11.2a4.55,4.55,0,0,0-4.58-4.42C34.9,6.82,32.68,8.5,33,10.26Z"/><path class="cls-1" d="M117.58,12.09c.08-1.15.15-2.41.26-3.65.06-.7-.16-1-.9-1-1.83-.11-2.35-1-1.49-2.65a1.74,1.74,0,0,1,1.37-.59c1.16,0,1.33-.47,1.11-1.5-.45-2.13-.4-2.14,1.75-2.18s2.16,0,2.17,2.12c0,1.75,0,1.75,1.74,1.74h.22c2.47,0,2-.07,1.91,2.08,0,.68-.35.9-1,.91-.85,0-1.7.05-2.55,0s-1.07.23-1.07,1c0,1.43-.11,2.87-.12,4.3,0,2,.83,2.81,2.81,2.86.71,0,1.45-.15,1.55.91A1.7,1.7,0,0,1,124,18.5a5.14,5.14,0,0,1-6.41-4.66C117.55,13.29,117.58,12.74,117.58,12.09Z"/><path class="cls-2" d="M54,18.61A7.23,7.23,0,0,1,46.6,13.1a7.36,7.36,0,0,1,3-8c2.77-2,7.54-1.28,9.53,1.42a1.09,1.09,0,0,1,.25.69c-.11.74-2.64,1.44-3.23.92a3.87,3.87,0,0,0-4.75-.54A3.58,3.58,0,0,0,50,12.21c1.23,3.44,3.89,4.29,6.83,2.1.94-.71,1.44.08,2,.43,1.23.73,1.24,1,.18,1.92C57.54,18,55.9,18.9,54,18.61Z"/><path class="cls-2" d="M23.13,4.14c-.05.54-.1.94-.12,1.34s0,.69,0,1A38.7,38.7,0,0,1,26.75,4.1a7.81,7.81,0,0,1,2.45-.36,18.66,18.66,0,0,1,0,2.12c-.24,1.73-.34,1.78-2.11,1.77-2.37,0-3.66,1.18-3.72,3.59,0,1.92.09,3.83.15,5.75.05,1.68-.07,1.81-1.71,1.63L21,18.53c-.8-.05-1.07-.39-1.07-1.27q0-5.91-.19-11.82c0-.91.15-1.32,1.07-1.3C21.55,4.15,22.31,4.14,23.13,4.14Z"/><path class="cls-3" d="M105.55,24.09a21,21,0,0,1,1.19-1.89c.17-.22.54-.29.82-.42.11.25.32.49.33.74.06,1.1.09,2.21.07,3.31a2.79,2.79,0,0,1-.35.88l-.3-.1-.23-2.1-.26-.08-1,1.57a.82.82,0,0,1-.21-.1c-.37-.35-.73-.72-1.09-1.08-.15.45-.28.92-.47,1.36a5.46,5.46,0,0,1-.53.82c-.16-.28-.46-.58-.45-.86,0-1.24.18-2.48.33-3.71,0-.24.31-.45.48-.68a3.54,3.54,0,0,1,.67.6C104.86,22.84,105.13,23.37,105.55,24.09Z"/><path class="cls-3" d="M66.9,26.81c-.13-.48-.42-.92-.31-1.2a23.54,23.54,0,0,1,1.63-3.53c.34-.59,1-.49,1.24.23.4,1.11.77,2.22,1.07,3.35a1.18,1.18,0,0,1-.31.84c0,.07-.5,0-.64-.16-.92-.92-1.19-.93-2.13,0A5.66,5.66,0,0,1,66.9,26.81Z"/><path class="cls-3" d="M41.75,24.56l.5-3,.42,0A5.32,5.32,0,0,1,43,22.78c0,1.1,0,2.21-.06,3.31a3.22,3.22,0,0,1-.34.85,4.85,4.85,0,0,1-.75-.68c-.39-.55-.73-1.15-1.1-1.73l-.29.15L40.17,27h-.45a6.56,6.56,0,0,1-.25-1.15q-.09-1.38-.06-2.76a2.92,2.92,0,0,1,.31-.85c.32.14.76.18.94.42A15.19,15.19,0,0,1,41.75,24.56Z"/><path class="cls-3" d="M98.91,26.79c0-1.43,0-2.74,0-4.05a1.18,1.18,0,0,1,.75-.85,6.05,6.05,0,0,1,1.67.2,3.62,3.62,0,0,1-.46,1.12c-.16.19-.59.15-.9.38l1.6.42,0,.37-1.12.19c-.13.54-.33,1.11.58,1.12s.73.5.69,1.1Z"/><path class="cls-3" d="M54.81,24.83a2.06,2.06,0,0,1-2.14,2.05,2.63,2.63,0,0,1-2.35-2.6,2.27,2.27,0,0,1,2.32-2.17A2.5,2.5,0,0,1,54.81,24.83Zm-2.05.81c.61-.05,1.23-.24,1.26-1.11A1.39,1.39,0,0,0,52.71,23c-1,.05-1.26.65-1.25,1.5S51.88,25.68,52.76,25.64Z"/><path class="cls-3" d="M36.14,24.73a1.88,1.88,0,0,1-1.91,2.07,2.42,2.42,0,0,1-2.32-2.36A3,3,0,0,1,34.25,22C35.37,21.94,36.14,23.06,36.14,24.73Zm-.55-.37c-.42-.43-.79-1.12-1.29-1.23-.81-.19-1.21.47-1.26,1.28a1,1,0,0,0,1.07,1.22C34.8,25.65,35.35,25.42,35.59,24.36Z"/><path class="cls-3" d="M78.1,24a7.63,7.63,0,0,0-1.15.35,2.87,2.87,0,0,0-.62.59,2.44,2.44,0,0,0,.65.52c.45.17,1.28-.23,1.21.62,0,.23-.91.54-1.42.56-1.68.07-1.68,0-1.62-1.69q0-1.15.06-2.31c0-.57.27-.77.85-.65.43.08.88,0,1.31.09a5.58,5.58,0,0,1,.93.36,7.54,7.54,0,0,1-.92.59,3.79,3.79,0,0,1-.84.16v.28l1.52.19Z"/><path class="cls-3" d="M66.25,22.74c-.43.21-.52.27-.62.3l-1.37.38c.34.36.7.69,1,1.07s.69.85.59,1a3.16,3.16,0,0,1-1.27,1.38c-.4.19-1-.12-1.55-.21.1-.31.12-.75.34-.91s.68-.1,1.11-.15c-.43-1.07-2.61-1.27-1.41-2.87A2.76,2.76,0,0,1,64.84,22C65.22,21.94,65.65,22.4,66.25,22.74Z"/><path class="cls-3" d="M81.41,25.36l1.94.48c.18-.76,0-1.1-.71-1.28-.4-.11-1-.48-1-.73a1.85,1.85,0,0,1,.69-1.25A4.85,4.85,0,0,1,84,21.85c.23-.06.55.21.84.33a5.44,5.44,0,0,1-.56.69c-.37.31-.78.57-1.17.85a6,6,0,0,1,1.19.58c.3.23.67.62.67.94a1.5,1.5,0,0,1-1.52,1.58A1.73,1.73,0,0,1,81.41,25.36Z"/><path class="cls-3" d="M93.28,23l-1.2.09-.15.26a7.76,7.76,0,0,0,1.23.79c.86.35.52.95.36,1.48-.25.84-.82,1.49-1.75,1.31-.48-.1-.88-.66-1.31-1a4,4,0,0,1,.77-.28,3.48,3.48,0,0,1,.78.07,4,4,0,0,0-.21-.88c-.09-.18-.35-.27-.5-.43-.31-.35-.91-1-.85-1.06a4.67,4.67,0,0,1,1.65-1.46C92.72,21.61,93.25,22.1,93.28,23Z"/><path class="cls-3" d="M28.44,26.69a2.46,2.46,0,0,1-.31-.85,15.39,15.39,0,0,1,0-2.54c0-.4.24-1.06.49-1.12a1.91,1.91,0,0,1,2.36.68,1.2,1.2,0,0,1-.16,1.69c-.25.22-.53.4-.78.62C29.57,25.6,29.11,26.05,28.44,26.69Z"/><path class="cls-3" d="M87.27,23.27l1.87-1.49.32.26a5.49,5.49,0,0,1-.39,1,4.69,4.69,0,0,0-1,3.3c0,.16-.24.37-.37.55a2.25,2.25,0,0,1-.6-.49c-.11-.16,0-.42,0-.65a3,3,0,0,0-1.17-2.6c-.3-.21-.39-.72-.54-1.11,0,0,.34-.27.41-.23a6.22,6.22,0,0,1,1,.74A5.38,5.38,0,0,1,87.27,23.27Z"/><path class="cls-3" d="M58.61,24.68c-1.25.25-2.31.65-1.79,2.3h-.39c-.21-.25-.54-.47-.61-.75a9.37,9.37,0,0,1-.19-1.75c-.1-2.13-.1-2.14,2-2.49a2.13,2.13,0,0,1,.76.17c-.16.29-.25.67-.5.85s-.65.11-1,.24a3,3,0,0,0-.59.49,2.84,2.84,0,0,0,.68.33c.47.1,1,.14,1.45.21Z"/><path class="cls-3" d="M96.24,27.06c-1.12-1.43.34-3.58-2.06-4.54A6.43,6.43,0,0,1,95.4,22a2.9,2.9,0,0,1,1.21,0,7,7,0,0,1,1.14.4c-.23.28-.49.54-.7.84a1.94,1.94,0,0,0-.39.82c-.06.66,0,1.33,0,2A4.89,4.89,0,0,1,96.24,27.06Z"/><path class="cls-3" d="M44.93,23.09,43.5,23l-.12-.23c.22-.16.42-.43.65-.46a21.69,21.69,0,0,1,2.42-.16.72.72,0,0,1,.56.36c.06.24,0,.75-.13.78-1.08.28-.7,1.12-.75,1.79a4.93,4.93,0,0,1,0,1.09c-.08.25-.39.42-.6.63-.19-.22-.54-.43-.55-.67C44.89,25.15,44.93,24.16,44.93,23.09Z"/><path class="cls-3" d="M72.37,25.36a8.6,8.6,0,0,1,1.33.17c.23.07.39.35.58.54-.19.18-.37.5-.58.52a4.9,4.9,0,0,1-1.53,0c-.72-.12-1.2-.36-.89-1.33a12.78,12.78,0,0,0,.23-2.5,9.53,9.53,0,0,1,.3-1.16C72.81,22.89,72.17,24.12,72.37,25.36Z"/><path class="cls-3" d="M38.17,21.58c0,1.8.1,3.29.11,4.79,0,.18-.24.39-.42.54s-.38-.18-.38-.28c0-1.52,0-3.05,0-4.57C37.5,22,37.71,21.9,38.17,21.58Z"/><path class="cls-3" d="M47.52,24.26a16.48,16.48,0,0,1,1.72-.06c.12,0,.27.29.34.47s-.12.32-.2.32c-.62,0-1.25,0-1.87,0Z"/><path class="cls-3" d="M61.83,25.06l-2.14-.27.06-.48a1.74,1.74,0,0,1,2.16.25Z"/></g></g></svg>