<svg xmlns="http://www.w3.org/2000/svg" viewBox="0 0 471 451.64"><defs><style>.cls-1,.cls-12,.cls-5{fill:#92e3a9;}.cls-2,.cls-4,.cls-8{fill:#fff;}.cls-2{opacity:0.7;}.cls-3{opacity:0.2;}.cls-11,.cls-12,.cls-13,.cls-4,.cls-5,.cls-6,.cls-7,.cls-9{stroke:#263238;}.cls-4,.cls-5,.cls-6,.cls-7,.cls-9{stroke-miterlimit:10;}.cls-10,.cls-13,.cls-6{fill:#263238;}.cls-7{fill:#a6a6a6;}.cls-11,.cls-9{fill:none;}.cls-11,.cls-13{stroke-linecap:round;}.cls-11,.cls-12,.cls-13{stroke-linejoin:round;}</style></defs><g id="Layer_2" data-name="Layer 2"><g id="Background_Simple" data-name="Background Simple"><path class="cls-1" d="M7.79,238.12s-.21,82,65.65,134.28,159.6,53,235.42,55.52,135.69-43,146.76-109-46.34-83.33-75.27-157.07S355.08,63.36,290,19.65s-170.34-11.8-227.74,69S7.79,238.12,7.79,238.12Z"/><path class="cls-2" d="M7.79,238.12s-.21,82,65.65,134.28,159.6,53,235.42,55.52,135.69-43,146.76-109-46.34-83.33-75.27-157.07S355.08,63.36,290,19.65s-170.34-11.8-227.74,69S7.79,238.12,7.79,238.12Z"/></g><g id="Shadow"><path class="cls-3" d="M250,77.3V75.8a12.52,12.52,0,0,0-12.5-12.5H215.61a24,24,0,0,0-9.58-46H138a24,24,0,0,0-9.58,46H108v33H96.52v33H108v42.46L88.24,280.08H85l-10,37H17.06L10.88,340.3h18l-2.68,14h2.41l18.28,8.51V451.3H215v.34h55V77.3Z"/></g><g id="Slot_Machine" data-name="Slot Machine"><rect class="cls-4" x="211.71" y="355.8" width="129" height="95"/><rect class="cls-4" x="198.37" y="358.8" width="20.15" height="92"/><polygon class="cls-4" points="332.53 353.8 177.79 353.8 181.8 332.8 336.37 332.8 332.53 353.8"/><path class="cls-4" d="M357,64.8H289a23.5,23.5,0,0,1-23.5-23.5h0A23.5,23.5,0,0,1,289,17.8h68a23.5,23.5,0,0,1,23.5,23.5h0A23.5,23.5,0,0,1,357,64.8Z"/><path class="cls-5" d="M356,58.8H290a17.49,17.49,0,0,1-17.5-17.5h0A17.5,17.5,0,0,1,290,23.8h66a17.51,17.51,0,0,1,17.5,17.5h0A17.5,17.5,0,0,1,356,58.8Z"/><polygon class="cls-6" points="366.53 451.14 420.53 451.14 420.53 77.8 392.53 77.8 391.53 95.8 391.53 175.8 355.53 352.8 366.53 358.8 366.53 451.14"/><rect class="cls-6" x="248.02" y="96.8" width="13" height="32"/><path class="cls-4" d="M381.28,63.8h7.18a12,12,0,0,1,12,12V171L361.05,351.8l9.82,7-30.19.5-11.93-5.5.93-14.49,11.8.49,19.88-59.22L381.28,171.8Z"/><rect class="cls-5" x="400.33" y="171.8" width="4" height="80"/><path class="cls-5" d="M409,171.8a6.67,6.67,0,1,0-6.67,6.67A6.66,6.66,0,0,0,409,171.8Z"/><ellipse class="cls-5" cx="402.67" cy="251.14" rx="11" ry="14.67"/><rect class="cls-6" x="383.7" y="96.8" width="13" height="32"/><rect class="cls-4" x="259.53" y="63.8" width="126" height="109"/><rect class="cls-5" x="268.53" y="77.8" width="108" height="83"/><polygon class="cls-4" points="239.62 280.8 365.62 280.8 385.53 171.8 259.53 171.8 239.62 280.8"/><polygon class="cls-4" points="250.81 268.8 358.81 268.8 376.53 171.8 268.53 171.8 250.81 268.8"/><rect class="cls-4" x="268.53" y="63.8" width="108" height="7"/><polygon class="cls-4" points="220.38 339.8 351.76 339.8 365.62 280.58 236.33 280.58 220.38 339.8"/><polygon class="cls-7" points="213.53 339.8 332.53 339.8 337.53 317.58 218.54 317.58 213.53 339.8"/><polygon class="cls-6" points="162.53 339.8 302.99 339.8 308.9 317.58 168.44 317.58 162.53 339.8"/><polygon class="cls-5" points="270.24 306 243.71 306 249.19 290.8 275.72 290.8 270.24 306"/><polygon class="cls-5" points="308.98 306 282.45 306 287.92 290.8 314.45 290.8 308.98 306"/><polygon class="cls-5" points="347.71 306 321.18 306 326.66 290.8 353.19 290.8 347.71 306"/><polygon class="cls-6" points="179.71 353.8 220.53 372.8 337.53 372.8 337.53 358.8 332.53 353.8 179.71 353.8"/><ellipse class="cls-5" cx="282.75" cy="190.46" rx="11" ry="8.5" transform="translate(56.65 445.6) rotate(-82.42)"/><ellipse class="cls-4" cx="278.03" cy="219.8" rx="11" ry="8.5" transform="translate(23.46 466.39) rotate(-82.42)"/><ellipse class="cls-4" cx="270.53" cy="248.8" rx="11" ry="8.5" transform="translate(-11.8 484.13) rotate(-82.42)"/><ellipse class="cls-4" cx="304.79" cy="190.46" rx="11" ry="8.5" transform="translate(75.78 467.45) rotate(-82.42)"/><ellipse class="cls-5" cx="300.07" cy="219.8" rx="11" ry="8.5" transform="translate(42.59 488.24) rotate(-82.42)"/><ellipse class="cls-4" cx="292.57" cy="248.8" rx="11" ry="8.5" transform="translate(7.34 505.98) rotate(-82.42)"/><ellipse class="cls-5" cx="326.84" cy="190.46" rx="11" ry="8.5" transform="translate(94.91 489.3) rotate(-82.42)"/><ellipse class="cls-5" cx="322.11" cy="219.8" rx="11" ry="8.5" transform="matrix(0.13, -0.99, 0.99, 0.13, 61.73, 510.09)"/><ellipse class="cls-5" cx="314.61" cy="248.8" rx="11" ry="8.5" transform="translate(26.47 527.83) rotate(-82.42)"/><path class="cls-5" d="M357.31,191.58c-.81,6-5.23,10.4-9.88,9.78s-7.78-6-7-12,5.23-10.41,9.88-9.79S358.11,185.56,357.31,191.58Z"/><ellipse class="cls-5" cx="344.16" cy="219.8" rx="11" ry="8.5" transform="translate(80.86 531.94) rotate(-82.42)"/><ellipse class="cls-5" cx="336.66" cy="248.8" rx="11" ry="8.5" transform="translate(45.6 549.68) rotate(-82.42)"/><rect class="cls-8" x="288.71" y="93.8" width="63" height="15"/><rect class="cls-8" x="277.71" y="123.8" width="17.74" height="21"/><line class="cls-9" x1="301.36" y1="132.8" x2="317.41" y2="132.8"/><rect class="cls-8" x="325.01" y="123.8" width="17.74" height="21"/><line class="cls-9" x1="348.66" y1="132.8" x2="364.71" y2="132.8"/><rect class="cls-4" x="337.53" y="358.8" width="29.18" height="92"/><path class="cls-10" d="M285,33.85c2,0,3.08,1.22,3.08,3.35v.42h-2v-.55c0-1-.38-1.32-1.05-1.32s-1,.36-1,1.32c0,2.74,4.09,3.25,4.09,7.06,0,2.13-1.07,3.35-3.12,3.35s-3.13-1.22-3.13-3.35v-.82h2v.95c0,1,.42,1.3,1.09,1.3s1.09-.34,1.09-1.3c0-2.74-4.1-3.25-4.1-7.06C281.86,35.07,282.91,33.85,285,33.85Z"/><path class="cls-10" d="M289.25,34h2.09V45.43h3.45v1.9h-5.54Z"/><path class="cls-10" d="M295.53,37.2c0-2.13,1.13-3.35,3.18-3.35s3.19,1.22,3.19,3.35v6.93c0,2.13-1.13,3.35-3.19,3.35s-3.18-1.22-3.18-3.35Zm2.1,7.06c0,1,.42,1.32,1.08,1.32s1.09-.36,1.09-1.32V37.07c0-1-.42-1.32-1.09-1.32s-1.08.36-1.08,1.32Z"/><path class="cls-10" d="M302.64,34h6.47v1.91h-2.19V47.33h-2.09V35.91h-2.19Z"/><path class="cls-10" d="M317.42,43.47,318.84,34h2.92V47.33h-2V37.77l-1.45,9.56h-2l-1.56-9.43v9.43H313V34h2.91Z"/><path class="cls-10" d="M330.06,47.33H328l-.37-2.42H325l-.36,2.42h-1.92L324.86,34h3.07Zm-4.78-4.23h2l-1-6.74Z"/><path class="cls-10" d="M337.09,42.36v1.77c0,2.13-1.07,3.35-3.13,3.35s-3.12-1.22-3.12-3.35V37.2c0-2.13,1.07-3.35,3.12-3.35s3.13,1.22,3.13,3.35v1.29h-2V37.07c0-1-.42-1.32-1.09-1.32s-1.08.36-1.08,1.32v7.19c0,1,.41,1.3,1.08,1.3s1.09-.34,1.09-1.3v-1.9Z"/><path class="cls-10" d="M340.46,47.33h-2.1V34h2.1v5.71h2.38V34H345V47.33h-2.13V41.62h-2.38Z"/><path class="cls-10" d="M346.5,34h2.09V47.33H346.5Z"/><path class="cls-10" d="M352,37.68v9.65h-1.89V34h2.63l2.15,8V34h1.87V47.33h-2.15Z"/><path class="cls-10" d="M360.34,39.62h2.88v1.9h-2.88v3.91H364v1.9h-5.71V34H364v1.91h-3.62Z"/></g><g id="Character"><path class="cls-4" d="M212.39,213.58s9.92-.89,9.57,1.24-5.32,1.24-6.38,1.42-3.55.88-3.55.88,5.32.53,6.74,1.6,3.54,2.3,2.12,3.19-3.19-.53-4.6-.53-5.5-.36-5.5-.36,4.08,2.66,4.08,3.9-1.42,1.24-2,.89-2.66-1.95-3.72-2.13-6.38-.18-6.38-.18l-2.3.71s-1.07.36-1.07-2.48,6.56-7.44,7.8-7.62S212.39,213.58,212.39,213.58Z"/><path class="cls-4" d="M186.52,223.5s12.22-5.67,15.59-7.8,7.8-5.31,11.87-5.31,4.43,1.77,3.19,2a32.42,32.42,0,0,0-8.5,3.72c-2.31,1.59-5,3.37-5,3.37a36.53,36.53,0,0,0,7.8-.89c3.37-.89,4.08-.35,3.19,1.59s-6.91,2.49-8.15,2.84-3.19,3.19-5.85,4.61-13.47,3.9-13.47,3.9Z"/><path class="cls-4" d="M152.79,328s-4.75,18.46-4,32.7,12.93,51.16,13.72,54.59,1.84,6.86,0,10.29-3.43,7.91-2.9,10,1.31,14,1.31,14h2.11l2.11-10s5.28,2.64,7.12,4.75,2.38,3.43,5,4.48,14.76,1.59,15.56,0-1.06-2.37-4.22-4.48a34.43,34.43,0,0,1-6.33-6.07s-6.33-10.54-7.65-15-1.58-39.29-1.32-50.11,3.43-41.93,3.43-41.93Z"/><path class="cls-5" d="M188.66,444.32a19.35,19.35,0,0,1-2.14-1.67c-.08.29-.76.62-3.4.62-4.75,0-7.65-5-16.09-9.5-2.83-1.5-5-2.61-6.56-3.43-.73,2.1-1.12,4.08-.82,5.28.52,2.11,1.31,14,1.31,14h2.11l2.11-10s5.28,2.64,7.12,4.75,2.38,3.43,5,4.48,14.76,1.59,15.56,0S191.82,446.43,188.66,444.32Z"/><path class="cls-4" d="M185.32,330.35s-13,12.5-19.5,19.5l-32,34.5s-6.5-2-9.5-2-14.5,1.5-14.5,1.5v2.5h8s-3.5,9.5-8.5,14.5-7,16.5-2.5,17,8-7,8-7l28-22.5s63-44.5,69-48,8.5-14.5,8.5-17.5v-5l-.5-2Z"/><path class="cls-5" d="M106.82,417.85c3.43.38,6.27-3.87,7.43-5.93a3.05,3.05,0,0,1-1.81-4.52c1.13-2.49,13.17-19.59,16.53-24.35a24.11,24.11,0,0,0-4.65-.7c-3,0-14.5,1.5-14.5,1.5v2.5h8s-3.5,9.5-8.5,14.5S102.32,417.35,106.82,417.85Z"/><path class="cls-6" d="M161.86,135.63s-5.5,7.64-13.2,24.88a97.3,97.3,0,0,0-8.44,39.24c0,6.61,1.83,22.38,1.83,22.38s-13.57,17.6-13.93,30.44,5.5,35.58,6.23,37.41,2.57,37.78,2.57,37.78a123,123,0,0,0,40,6.24c22-.37,47.31-16.88,47.31-16.88s-11.37-38.88-18.7-52.08-13.94-27.51-13.94-27.51l-3.3-17.24,4.4-11.73s5.14-.74,6.6-14.31-1.83-30.08-5.5-35.58S181.05,143,181.05,143Z"/><path class="cls-4" d="M206.24,84.58a33.51,33.51,0,0,1,1.84,7.34c.73,4.77-1.11,7-.37,9.9s4.4,7.34,4.4,9.54S207,115,207,115s-3.3,12.1-4,15-15.77-2.2-15.77-2.2l-4.4,16.88-18.34-5.87,4.4-15.77s.37-10.27-1.83-15-8.07-13.21,4.4-22S203.31,82.75,206.24,84.58Z"/><path class="cls-9" d="M176.9,113.56l4-.37a31.17,31.17,0,0,0,2.2,7"/><path class="cls-10" d="M205.14,103.29c0,1.21-.57,2.2-1.28,2.2s-1.29-1-1.29-2.2.58-2.2,1.29-2.2S205.14,102.07,205.14,103.29Z"/><path class="cls-9" d="M199.27,98.15s3.3-3.66,6.6-1.1"/><path class="cls-9" d="M204,119.06s-3.67,1.1-5.5-3.67"/><path class="cls-6" d="M180.2,102.56l5.5,2.56-.37-3.3,4.77,3.67s0-5.87-.36-9.9.73-7.34,4-8.81a43.57,43.57,0,0,1,6.24-2.2L198.54,89s9.17-.73,13.94-6.23,2.2-15.41-14.31-18.71-36.31,1.1-44,12.84-4.77,20.91-1.47,25.31,8.44,6.23,10.27,9.53,4.4,6.24,4.4,8.81-1.46,7.33,2.2,5.87A7.13,7.13,0,0,0,174,122s2.2,1.84,2.57-2.2.37-6.23.37-6.23a8.36,8.36,0,0,1-3.67-9.17C174.7,98.15,180.2,102.56,180.2,102.56Z"/><path class="cls-4" d="M161.86,135.63a2.2,2.2,0,1,1-2-2.4A2.2,2.2,0,0,1,161.86,135.63Z"/><circle class="cls-4" cx="163.94" cy="136.94" r="2.2"/><path class="cls-4" d="M170.41,138.66a2.2,2.2,0,1,1-2-2.4A2.19,2.19,0,0,1,170.41,138.66Z"/><path class="cls-4" d="M174.69,140.18a2.2,2.2,0,1,1-2-2.4A2.21,2.21,0,0,1,174.69,140.18Z"/><path class="cls-4" d="M179,141.69a2.2,2.2,0,1,1-2-2.4A2.19,2.19,0,0,1,179,141.69Z"/><path class="cls-4" d="M183.24,143.21a2.2,2.2,0,1,1-2-2.4A2.21,2.21,0,0,1,183.24,143.21Z"/><path class="cls-4" d="M187.52,144.72a2.2,2.2,0,1,1-2-2.4A2.2,2.2,0,0,1,187.52,144.72Z"/><path class="cls-6" d="M176.9,148.77s9.9.37,16.87,4.4,42.55,27.14,42.55,27.14l38.6-19.26V150.41l8.8-5.5,3.3.73s4.77-2.2,7-1.1,1.83,5.5,1.83,5.5l-.36,1.47s1.46,8.07.36,11-15.4,6.24-16.5,6.61-38.06,33-42.83,34.06-57.76-18.1-57.76-18.1"/><path class="cls-4" d="M295.82,162.51c1.1-2.93-.36-11-.36-11l.36-1.47s.37-4.4-1.83-5.5-7,1.1-7,1.1l-3.3-.73-8.8,5.5v10.64l-38.6,19.26s-11.56-7.5-22.79-14.71c-2.79,6-10.22,20.78-17.19,25.72-.09.06,3.63,1,3.54,1.09,17.26,6.29,33.57,11.47,36.61,10.77,4.77-1.1,41.73-33.7,42.83-34.06S294.72,165.45,295.82,162.51Z"/></g><g id="Seat"><rect class="cls-6" x="92.89" y="351.14" width="10" height="97"/><path class="cls-4" d="M27.52,272.14s9,74,20,81,46,9,77,7,41-13,43-22,0-25-6-26-40-6-49-18-8-16-25-23S31.52,261.14,27.52,272.14Z"/><rect class="cls-6" x="43.22" y="447.14" width="109.33" height="2.67"/></g><g id="Plant"><line class="cls-11" x1="417.82" y1="280.02" x2="431.32" y2="409.35"/><line class="cls-11" x1="428.66" y1="384.06" x2="423.03" y2="378.14"/><path class="cls-12" d="M424.88,380.07a6.91,6.91,0,0,0-2.43-5.19c-1.57-1.4-9.84-4.88-10.62-2C411,376.08,419.44,382.3,424.88,380.07Z"/><line class="cls-11" x1="424.88" y1="380.07" x2="417.02" y2="375.17"/><line class="cls-11" x1="430.06" y1="397.42" x2="424.56" y2="392.84"/><path class="cls-12" d="M426.42,394.78a6.94,6.94,0,0,0-2.44-5.19c-1.57-1.4-9.83-4.88-10.62-2C412.51,390.79,421,397,426.42,394.78Z"/><line class="cls-11" x1="426.42" y1="394.78" x2="418.55" y2="389.88"/><line class="cls-11" x1="424.84" y1="347.24" x2="419.28" y2="342.25"/><path class="cls-12" d="M421.14,344.18A6.94,6.94,0,0,0,418.7,339c-1.57-1.4-9.83-4.88-10.62-2C407.23,340.19,415.69,346.41,421.14,344.18Z"/><line class="cls-11" x1="421.14" y1="344.18" x2="413.27" y2="339.28"/><line class="cls-11" x1="426.39" y1="362.88" x2="420.81" y2="356.95"/><path class="cls-12" d="M422.67,358.89a6.91,6.91,0,0,0-2.43-5.19c-1.57-1.4-9.84-4.88-10.62-2C408.77,354.9,417.23,361.12,422.67,358.89Z"/><line class="cls-11" x1="422.67" y1="358.89" x2="414.81" y2="353.99"/><line class="cls-11" x1="422.36" y1="324.03" x2="416.79" y2="318.35"/><path class="cls-12" d="M418.65,320.29a6.94,6.94,0,0,0-2.44-5.19c-1.57-1.4-9.84-4.88-10.62-2C404.74,316.3,413.2,322.52,418.65,320.29Z"/><line class="cls-11" x1="418.65" y1="320.29" x2="410.78" y2="315.39"/><line class="cls-11" x1="419.68" y1="298.48" x2="414.28" y2="294.36"/><path class="cls-12" d="M416.14,296.29a6.91,6.91,0,0,0-2.43-5.19c-1.57-1.4-9.84-4.88-10.62-2C402.23,292.3,410.69,298.52,416.14,296.29Z"/><line class="cls-11" x1="416.14" y1="296.29" x2="408.27" y2="291.39"/><line class="cls-11" x1="428.12" y1="375.9" x2="432.77" y2="368.31"/><path class="cls-12" d="M431.35,370.59a6.94,6.94,0,0,1,1.31-5.58c1.25-1.7,8.62-6.81,10-4.12C444.13,363.81,437.14,371.64,431.35,370.59Z"/><line class="cls-11" x1="431.35" y1="370.59" x2="436.89" y2="365.39"/><line class="cls-11" x1="424.08" y1="337.19" x2="428.73" y2="329.61"/><path class="cls-12" d="M427.31,331.88a6.94,6.94,0,0,1,1.31-5.58c1.25-1.69,7-5.94,8.38-3.26C438.49,326,433.1,332.94,427.31,331.88Z"/><line class="cls-11" x1="427.31" y1="331.88" x2="434.4" y2="325.11"/><line class="cls-11" x1="422.3" y1="320.18" x2="426.95" y2="312.6"/><path class="cls-12" d="M425.53,314.87a6.92,6.92,0,0,1,1.32-5.58c1.24-1.69,8.61-6.8,10-4.12C438.32,308.1,431.33,315.93,425.53,314.87Z"/><line class="cls-11" x1="425.53" y1="314.87" x2="432.62" y2="308.1"/><line class="cls-11" x1="419.7" y1="295.25" x2="424.35" y2="287.66"/><path class="cls-12" d="M422.93,289.94a6.94,6.94,0,0,1,1.31-5.58c1.25-1.7,8.62-6.81,10-4.12C435.72,283.16,428.72,291,422.93,289.94Z"/><line class="cls-11" x1="422.93" y1="289.94" x2="430.02" y2="283.17"/><path class="cls-12" d="M417.71,279.3a6.94,6.94,0,0,1,1.31-5.58c1.25-1.69,8.62-6.8,10-4.12C430.49,272.53,423.5,280.36,417.71,279.3Z"/><line class="cls-11" x1="417.71" y1="279.3" x2="424.79" y2="272.53"/><path class="cls-12" d="M418.12,279.6a7,7,0,0,1-5.41-1.89c-1.56-1.42-5.87-9.28-3-10.36C412.72,266.17,419.77,274,418.12,279.6Z"/><line class="cls-11" x1="418.12" y1="279.6" x2="412.13" y2="271.84"/><line class="cls-11" x1="438.04" y1="245.17" x2="438.04" y2="408.72"/><line class="cls-11" x1="453.42" y1="297.83" x2="440" y2="427.17"/><line class="cls-11" x1="442.84" y1="400.74" x2="439.73" y2="397.19"/><path class="cls-12" d="M439.73,397.19a6.94,6.94,0,0,0-1.31-5.58c-1.25-1.69-8.62-6.8-10-4.11C426.94,390.42,433.94,398.25,439.73,397.19Z"/><line class="cls-11" x1="439.73" y1="397.19" x2="433.04" y2="390.77"/><line class="cls-11" x1="446.63" y1="363.82" x2="442.02" y2="359.97"/><path class="cls-12" d="M443.46,361.3a6.92,6.92,0,0,0-1.32-5.58c-1.25-1.7-8.62-6.8-10-4.11C430.67,354.53,437.67,362.36,443.46,361.3Z"/><line class="cls-11" x1="443.46" y1="361.3" x2="436.76" y2="354.88"/><line class="cls-11" x1="445.17" y1="381.32" x2="440.51" y2="373.73"/><path class="cls-12" d="M441.93,376a6.92,6.92,0,0,0-1.32-5.58c-1.24-1.7-8.62-6.8-10-4.11C429.14,369.24,436.14,377.06,441.93,376Z"/><line class="cls-11" x1="441.93" y1="376.01" x2="435.24" y2="369.59"/><line class="cls-11" x1="448.96" y1="340.25" x2="444.51" y2="335.13"/><path class="cls-12" d="M445.93,337.41a6.94,6.94,0,0,0-1.31-5.58c-1.25-1.7-8.62-6.8-10-4.12C433.15,330.64,440.14,338.46,445.93,337.41Z"/><line class="cls-11" x1="445.93" y1="337.41" x2="439.24" y2="330.99"/><line class="cls-11" x1="451.29" y1="317.79" x2="447" y2="311.13"/><path class="cls-12" d="M448.42,313.41a6.94,6.94,0,0,0-1.31-5.58c-1.25-1.7-8.62-6.8-10-4.11C435.64,306.64,442.63,314.46,448.42,313.41Z"/><line class="cls-11" x1="448.42" y1="313.41" x2="441.73" y2="306.99"/><line class="cls-11" x1="443.75" y1="393.77" x2="449.87" y2="387.31"/><path class="cls-12" d="M448,389.24a6.91,6.91,0,0,1,2.43-5.19c1.57-1.4,9.83-4.88,10.62-2C461.92,385.24,453.46,391.46,448,389.24Z"/><line class="cls-11" x1="448.01" y1="389.24" x2="456.34" y2="384.07"/><line class="cls-11" x1="447.77" y1="355.06" x2="453.88" y2="348.6"/><path class="cls-12" d="M452,350.54a6.94,6.94,0,0,1,2.43-5.2c1.57-1.4,9.83-4.88,10.62-2C465.93,346.54,457.48,352.76,452,350.54Z"/><line class="cls-11" x1="452.03" y1="350.54" x2="460.35" y2="345.37"/><line class="cls-11" x1="449.53" y1="338.05" x2="455.65" y2="331.59"/><path class="cls-12" d="M453.79,333.53a6.94,6.94,0,0,1,2.43-5.2c1.57-1.4,9.84-4.88,10.62-2C467.7,329.53,459.24,335.75,453.79,333.53Z"/><line class="cls-11" x1="453.79" y1="333.53" x2="462.12" y2="328.36"/><line class="cls-11" x1="452.05" y1="311.84" x2="458.24" y2="306.65"/><path class="cls-12" d="M456.38,308.59a6.91,6.91,0,0,1,2.43-5.19c1.57-1.41,9.83-4.89,10.62-2C470.28,304.59,461.83,310.81,456.38,308.59Z"/><line class="cls-12" x1="456.38" y1="308.59" x2="464.71" y2="303.42"/><path class="cls-12" d="M453.46,297.11a6.91,6.91,0,0,1,2.43-5.19c1.57-1.41,9.83-4.89,10.62-2C467.36,293.11,458.91,299.33,453.46,297.11Z"/><line class="cls-11" x1="453.46" y1="297.11" x2="461.78" y2="291.94"/><path class="cls-12" d="M453.8,297.48a7,7,0,0,1-4.91-3c-1.23-1.7-3.83-10.29-.85-10.76C451.28,283.23,456.58,292.29,453.8,297.48Z"/><line class="cls-11" x1="453.8" y1="297.48" x2="449.53" y2="288.65"/><line class="cls-11" x1="437.82" y1="383.83" x2="432.76" y2="377.06"/><path class="cls-12" d="M434.4,379.18a6.88,6.88,0,0,0-1.88-5.41c-1.42-1.56-9.27-5.88-10.36-3.06C421,373.77,428.75,380.83,434.4,379.18Z"/><line class="cls-11" x1="434.4" y1="379.18" x2="427.09" y2="373.49"/><line class="cls-11" x1="437.99" y1="351.21" x2="432.76" y2="346.33"/><path class="cls-12" d="M434.4,348.45a6.9,6.9,0,0,0-1.88-5.42c-1.42-1.55-9.27-5.87-10.36-3.06C421,343,428.75,350.1,434.4,348.45Z"/><line class="cls-11" x1="434.4" y1="348.45" x2="427.09" y2="342.75"/><line class="cls-11" x1="438.17" y1="317.31" x2="432.76" y2="310.24"/><path class="cls-12" d="M434.4,312.36a6.88,6.88,0,0,0-1.88-5.41c-1.42-1.56-9.27-5.88-10.36-3.06C421,307,428.75,314,434.4,312.36Z"/><line class="cls-11" x1="434.4" y1="312.36" x2="427.09" y2="306.67"/><line class="cls-11" x1="437.82" y1="290.78" x2="432.76" y2="286.22"/><path class="cls-12" d="M434.4,288.34a6.88,6.88,0,0,0-1.88-5.41c-1.42-1.56-9.27-5.88-10.36-3.06C421,282.93,428.75,290,434.4,288.34Z"/><line class="cls-11" x1="434.4" y1="288.34" x2="427.09" y2="282.65"/><line class="cls-11" x1="438.11" y1="266.75" x2="432.86" y2="262.9"/><path class="cls-12" d="M434.4,264.21a6.88,6.88,0,0,0-1.88-5.41c-1.42-1.56-9.27-5.87-10.36-3.06C421,258.8,428.75,265.86,434.4,264.21Z"/><line class="cls-11" x1="434.4" y1="264.21" x2="427.09" y2="258.52"/><line class="cls-11" x1="439.1" y1="391.99" x2="443.47" y2="386.45"/><path class="cls-12" d="M441.82,388.57a7,7,0,0,1,1.88-5.42c1.42-1.55,9.28-5.87,10.36-3.06C455.24,383.15,447.47,390.22,441.82,388.57Z"/><line class="cls-11" x1="441.82" y1="388.57" x2="449.57" y2="382.57"/><line class="cls-11" x1="438.05" y1="344.63" x2="443.47" y2="337.57"/><path class="cls-12" d="M441.82,339.69a7,7,0,0,1,1.88-5.42c1.42-1.56,9.28-5.87,10.36-3.06C455.24,334.27,447.47,341.33,441.82,339.69Z"/><line class="cls-11" x1="441.82" y1="339.69" x2="449.57" y2="333.69"/><line class="cls-11" x1="438.05" y1="320.5" x2="443.47" y2="313.44"/><path class="cls-12" d="M441.82,315.56a7,7,0,0,1,1.88-5.42c1.42-1.55,9.28-5.87,10.36-3.06C455.24,310.14,447.47,317.21,441.82,315.56Z"/><line class="cls-11" x1="441.82" y1="315.56" x2="449.57" y2="309.56"/><line class="cls-11" x1="438.05" y1="288.61" x2="443.47" y2="281.55"/><path class="cls-12" d="M441.82,283.67a6.93,6.93,0,0,1,1.88-5.41c1.42-1.56,9.28-5.88,10.36-3.07C455.24,278.26,447.47,285.32,441.82,283.67Z"/><line class="cls-11" x1="441.82" y1="283.67" x2="449.57" y2="277.67"/><line class="cls-11" x1="438.29" y1="261.09" x2="443.59" y2="256.95"/><path class="cls-12" d="M441.82,258.6a7,7,0,0,1,1.88-5.42c1.42-1.55,9.28-5.87,10.36-3.06C455.24,253.18,447.47,260.25,441.82,258.6Z"/><line class="cls-11" x1="441.82" y1="258.6" x2="449.57" y2="252.6"/><path class="cls-12" d="M437.73,247.48a6.93,6.93,0,0,1,1.88-5.41c1.42-1.56,9.28-5.88,10.36-3.06C451.15,242.07,443.38,249.13,437.73,247.48Z"/><line class="cls-11" x1="437.73" y1="247.48" x2="445.48" y2="241.48"/><path class="cls-12" d="M438.11,247.81a6.9,6.9,0,0,1-5.19-2.44c-1.4-1.57-4.87-9.84-2-10.62C434.13,233.9,440.34,242.37,438.11,247.81Z"/><line class="cls-11" x1="438.11" y1="247.81" x2="432.95" y2="239.48"/><polygon class="cls-13" points="444.77 451.14 427.45 451.14 425.28 407.39 446.94 407.39 444.77 451.14"/></g><g id="Floor"><line class="cls-9" y1="451.14" x2="471" y2="451.14"/></g></g></svg>