<svg xmlns="http://www.w3.org/2000/svg" viewBox="0 0 380.28 420.4"><defs><style>.cls-1{fill:#f89f46;}</style></defs><g id="Layer_2" data-name="Layer 2"><g id="Layer_1-2" data-name="Layer 1"><path class="cls-1" d="M124.72,151.63a106,106,0,0,1,35.64,13.91v27.27H121.71a29,29,0,0,0-29,29v78.52H1.08c-.29-.37-.67-.63-.66-.88.47-21.74-2.16-43.59,1.83-65.19,8-43.41,44.8-78,88.58-83.54a9,9,0,0,0,3.31-1.19c-21-4-38-14.14-50.34-31.59S27.41,81,31.58,60.12c7.48-37.41,41-62.37,79.75-60,35,2.18,65.6,32.56,68.42,68,3.06,38.6-22.56,74-64,81.78Z"/><path class="cls-1" d="M351.29,207.81H312.64v-29a67.64,67.64,0,1,0-135.28,0v29H138.71a29,29,0,0,0-29,29V362.42a58,58,0,0,0,58,58H322.3a58,58,0,0,0,58-58V236.8A29,29,0,0,0,351.29,207.81Zm-144.94-29a38.65,38.65,0,1,1,77.3,0v29h-77.3Zm-14.5,58a14.5,14.5,0,1,1-14.49,14.5A14.47,14.47,0,0,1,191.85,236.8Zm106.29,29a14.5,14.5,0,1,1,14.5-14.49A14.46,14.46,0,0,1,298.14,265.79Z"/></g></g></svg>