<svg xmlns="http://www.w3.org/2000/svg" viewBox="0 0 512 473.94"><defs><style>.cls-1{fill:#ea5454;}</style></defs><g id="Layer_2" data-name="Layer 2"><g id="Layer_1-2" data-name="Layer 1"><path class="cls-1" d="M105.4,182.6a32,32,0,0,0,45.25,0L224,109.3V352a32,32,0,0,0,64,0V109.3l73.38,73.38a32,32,0,0,0,45.25-45.25l-128-128a31.89,31.89,0,0,0-45.23,0l-128,128A31.89,31.89,0,0,0,105.4,182.6Z"/><path class="cls-1" d="M497.89,458.46c-.72-.48-1.45-.94-2.21-1.37C496.44,457.51,497.17,458,497.89,458.46Z"/><path class="cls-1" d="M512,424.39v37.16a5.2,5.2,0,0,1-.09,1,6.29,6.29,0,0,1-.17.62,5.78,5.78,0,0,1-.56,1.22c-.12.2-.25.4-.39.59h0l-.47.58-.26.28c-.18.19-.37.38-.57.56h0l-.64.54h0l-.41.32c-.28.2-.58.41-.89.61h0l-.48.3h0c-.16.1-.32.2-.5.29h0l-.52.29h0l-.55.28h0l-.56.28h0l-1.18.53h0q-.61.27-1.26.51c-.43.17-.88.33-1.33.49l-1.4.45h0l-1.86.53h0c-.72.18-1.45.36-2.21.53l-1.54.31-1.59.28-.81.13a78.79,78.79,0,0,1-11.74.86H32c-17.67,0-32-5.55-32-12.39V424.39C0,417.55,14.33,412,32,412H480a78.79,78.79,0,0,1,11.74.86l.81.13,1.59.28,1.54.31c.76.17,1.49.35,2.21.53h0l1.86.53h0l1.4.45c.45.16.9.32,1.33.49s.85.33,1.26.5h0l1.18.53a26.37,26.37,0,0,1,2.61,1.45c.31.2.61.41.89.62l.41.32h0l.64.55h0l.57.57.26.28.47.58h0c.14.19.27.39.39.58a5.86,5.86,0,0,1,.56,1.23,6.29,6.29,0,0,1,.17.62A5.12,5.12,0,0,1,512,424.39Z"/></g></g></svg>