<svg xmlns="http://www.w3.org/2000/svg" viewBox="0 0 576 384"><defs><style>.cls-1{fill:#44b86c;}</style></defs><g id="Layer_2" data-name="Layer 2"><g id="Layer_1-2" data-name="Layer 1"><path class="cls-1" d="M512,0a64,64,0,0,1,64,64V320a64.06,64.06,0,0,1-64,64H64A64,64,0,0,1,0,320V64A64,64,0,0,1,64,0ZM128,320a64,64,0,0,0-64-64v64ZM64,128a64,64,0,0,0,64-64H64ZM512,320V256a64.06,64.06,0,0,0-64,64Zm0-256H448a64.06,64.06,0,0,0,64,64ZM288,288a96,96,0,0,0,0-192c-53.9,0-96,42.1-96,96A95.45,95.45,0,0,0,288,288Z"/></g></g></svg>