<svg xmlns="http://www.w3.org/2000/svg" viewBox="0 0 512 473.94"><defs><style>.cls-1{fill:#3bc3de;}</style></defs><g id="Layer_2" data-name="Layer 2"><g id="Layer_1-2" data-name="Layer 1"><path class="cls-1" d="M105.4,336.54l128,128a31.89,31.89,0,0,0,45.23-.05l128-128a32,32,0,0,0-45.25-45.25L288,364.64V121.94a32,32,0,0,0-64,0v242.7l-73.35-73.3a32,32,0,1,0-45.25,45.2Z"/><path class="cls-1" d="M497.89,15.48c-.72.48-1.45.94-2.21,1.37C496.44,16.43,497.17,16,497.89,15.48Z"/><path class="cls-1" d="M512,49.55V12.39a5.2,5.2,0,0,0-.09-1,6.29,6.29,0,0,0-.17-.62,5.56,5.56,0,0,0-.56-1.22c-.12-.2-.25-.4-.39-.59h0l-.47-.58-.26-.28-.57-.57h0L508.85,7h0l-.41-.32c-.28-.21-.58-.41-.89-.62h0l-.48-.3h0l-.5-.3h0l-.52-.29h0l-.55-.28h0l-.56-.28h0l-1.18-.53h0c-.41-.17-.83-.34-1.26-.5s-.88-.33-1.33-.49l-1.4-.45h0l-1.86-.53h0c-.72-.18-1.45-.36-2.21-.53l-1.54-.31L492.55,1l-.81-.13A78.79,78.79,0,0,0,480,0H32C14.33,0,0,5.55,0,12.39V49.55c0,6.84,14.33,12.39,32,12.39H480a78.79,78.79,0,0,0,11.74-.86l.81-.13,1.59-.28,1.54-.31c.76-.17,1.49-.35,2.21-.53h0l1.86-.53h0l1.4-.45c.45-.16.9-.32,1.33-.49s.85-.33,1.26-.5h0l1.18-.53a26.37,26.37,0,0,0,2.61-1.45l.89-.62.41-.32h0l.64-.54h0c.2-.18.39-.37.57-.56l.26-.28.47-.58h0c.14-.19.27-.39.39-.59a5.78,5.78,0,0,0,.56-1.22,6.29,6.29,0,0,0,.17-.62A5.2,5.2,0,0,0,512,49.55Z"/></g></g></svg>