<svg xmlns="http://www.w3.org/2000/svg" viewBox="0 0 460.71 146.21"><defs><style>.cls-1{fill:#79c362;}</style></defs><g id="Layer_2" data-name="Layer 2"><g id="Layer_1-2" data-name="Layer 1"><path class="cls-1" d="M215.08,27.39c19.13,0,38.25-.09,57.37.08,4.22,0,6.14-.95,6.65-5.62,1.36-12.49,4.11-14.79,16.72-15.72,2.65-.19,5.31-.35,8-.36s5.89-1,6.23,3.54c.4,5.37-.92,7.62-5.48,8.33a26.93,26.93,0,0,1-3,.18c-9.36.4-9.38.39-11.51,9.55q-7.28,31.26-14.53,62.51c-1.8,7.71-2.39,8.44-10.31,8.39q-40.65-.27-81.29-.91c-10.5-.18-11.8-1.16-15.12-11C163,69.18,157.55,52,152.08,34.7c-1.93-6.08-.83-7.35,5.64-7.36q28.68,0,57.36,0Zm-49,11.44c1.87,6.16,2.45,12.23,5.55,16.46,1.57,2.14,7.71.93,11.79,1.21.66,0,1.33,0,2,0,2.51.16,5.24,0,4.35-3.43-1.24-4.77,3.38-12.06-4-14C180,37.64,173.61,38.83,166.08,38.83Zm110.32-.16c-4,0-7.61,0-11.19,0-10,.11-10,.12-11,10.18-.74,7.79-.74,7.79,7.31,7.75,2.65,0,5.38.34,7.92-.2,1.51-.32,3.53-1.82,3.93-3.19C274.67,48.8,275.31,44.19,276.4,38.67ZM199.72,49.16a12,12,0,0,1,0,2.69c-.63,4.5,1.06,6.58,5.74,5.82.82-.13,1.67,0,2.5-.08,11.88-.78,9.43.39,9.83-9.79.37-9,.31-9-8.54-9C198.51,38.77,200.08,37.29,199.72,49.16Zm.87,26.69a54.09,54.09,0,0,0,.1,7.43c.17,1.15,1.44,3,2.24,3.06,4.41.08,9.19.56,13.07-1,1.43-.58.79-6.34,1.06-9.74.06-.83-.09-1.67,0-2.48.51-4.92-1.26-7-6.62-7.06C199.9,65.9,199.9,65.57,200.59,75.85Zm69.27-8.46a7.08,7.08,0,0,0-1.66-.75c-1.31-.15-2.64-.22-4-.25-10.88-.29-10.88-.28-11.93,10.25-1.13,11.34-1,11.54,10.3,10.69,1.06-.08,2.76-.92,3-1.72C267.17,79.58,268.47,73.47,269.86,67.39ZM227.39,76.2h-.11c0,2.16.15,4.32,0,6.46-.27,3.15.68,4.55,4.15,4.27,12.41-1,10.42,2.09,11.09-11,.09-1.82,0-3.65.18-5.47.26-3.12-1.06-4.27-4.23-4.58-11.07-1.08-11.05-1.2-11.05,9.84Zm.46-27.75c-.08,1.32-.06,2.66-.26,4-.6,3.94,1,5.29,5,5.11,12.18-.57,10.24,1.89,11.2-10.41a14.71,14.71,0,0,1,.1-1.49c.81-4.56-.73-6.36-5.71-6.49C226.2,38.82,228.41,38.44,227.85,48.45ZM173.21,65.52c2.52,6.49,4.92,11.43,6.31,16.64s5.18,4.35,8.64,4c4.39-.47,2.36-4,2.35-6.28a51,51,0,0,0-.9-9.39c-.27-1.4-1.37-3.54-2.38-3.72C183.06,66,178.77,65.94,173.21,65.52Z"/><path class="cls-1" d="M31.23,67.32c.67-2.36,1.35-4.71,2-7.07C37.48,45,47,35,62.62,31.63c4.44-.94,5.52-3,5.51-7.06,0-4.47.5-8.45-3.1-12.44s.4-7.38,3.2-10.17C71.58-1.37,75,0,78,2.63s5.11,6.26,2,9.56c-3.78,4-3.78,8.51-3.85,13.37,0,3.31,1.24,4.41,4.35,5.35C95.41,35.4,106,44.69,111.23,59.64a15,15,0,0,1,.88,4.37c.07,2.8,1.46,3.8,4.1,3.72a33.14,33.14,0,0,1,6,.22c3.81.62,6.5.24,8.05-4.2,1.28-3.66,4.94-3.44,8.13-2.23,3.75,1.43,6.32,6.11,5.51,9.63-1.71,7.46-7.75,9.52-13.82,5a11.37,11.37,0,0,0-5.79-1.73,32.18,32.18,0,0,0-8.43.47c-1.37.28-3.38,1.68-3.56,2.81-2.77,17.11-13.72,26.66-29.2,32.15-3.67,1.31-8.27,1.74-7,7.54.79,3.58,1,7.54,2.83,10.58,2.32,3.93,3.16,7.22.23,10.93-2.7,3.42-7.06,4.44-10.16,2.43-4-2.58-5.39-7.42-2.59-11.23,4-5.45,2.3-11.14,1.32-16.76-.18-1.06-2.31-2.23-3.73-2.56-17.3-4-28.12-14.37-31.71-31.82-.76-3.73-2.11-5.42-6.17-5.15-4.87.32-9.68-.81-13.62,4-2.47,3-7.74,1.36-10.43-2.19C-1.07,71.38-.61,66.65,3.28,63c3.12-2.92,8.12-3.54,10.17-.3,2.86,4.53,6.43,4.8,10.92,4.24C26.45,66.68,28.62,67.15,31.23,67.32ZM42.9,69.46c0,17.82,12.61,30.24,30.62,30.13C88,99.5,101.73,86.83,101.86,73.42,102,57.07,88,41.46,73.14,41.36,56.73,41.25,42.91,54.09,42.9,69.46Z"/><path class="cls-1" d="M282.55,126.4c.08,8.71-7.36,17.08-17.13,19.26-9.46,2.12-18.7-2-22.11-10.79-1.74-4.5-4.24-5.55-8.56-5.35-7.63.35-15.28.39-22.92.37-3.2,0-5,1-6.37,4.17-4,9.48-11.27,13.16-21.67,11.52-8.8-1.4-15.71-8.28-16.78-16.73-1-8.17,4.32-17.22,13-20.35,9.51-3.45,18.24-1.51,24,7.35,1.78,2.74,3.68,3.79,6.84,3.7,8.3-.24,16.62-.43,24.92-.22,4.08.1,6.6-1.17,9-4.59,5.62-8,13.49-9.17,24.21-6.75C276.7,109.73,282.47,118.4,282.55,126.4Zm-29.8-.53c-.09,5.51,3.08,8.6,9,8.79,5.32.18,8.15-2.72,8.13-8.3,0-4.58-3.08-7.52-7.93-7.64C256.2,118.57,252.82,121.19,252.75,125.87Zm-66.28,8.6c5.85.16,8.88-2.59,8.9-8.06,0-4.23-3.48-7.54-8.05-7.63-5.56-.12-8.33,2.23-8.54,7.23C178.54,131.83,180.81,134.32,186.47,134.47Z"/><path class="cls-1" d="M460.57,78.18q0,28.39,0,56.79c0,1.49.42,3.23-.2,4.42-.95,1.85-2.38,4.21-4.08,4.68-1.24.34-3.83-1.64-4.73-3.21a13.84,13.84,0,0,1-1.4-6.69q0-58.53.11-117.07c0-3.06.15-6.49,4.43-6.36s5.95,3.25,6,7.16c.06,12.78,0,25.57,0,38.36V78.18Z"/><path class="cls-1" d="M323.93,76.89v56.28c0,4,.13,9.47-4.76,9.46s-4.63-5.52-4.65-9.5q-.27-56.77-.51-113.56c0-1.15-.32-2.72.28-3.39,1.49-1.65,3.3-3.6,5.26-4,1-.19,3.65,2.82,3.69,4.43.29,11.61.09,23.24.07,34.86,0,8.47,0,16.93,0,25.4Z"/><path class="cls-1" d="M387.29,77q0-29.89,0-59.79c0-2.76-.56-6.23,3.68-6.25,4.06,0,4.59,3.11,4.59,6.33q.07,58.55.1,117.09a12.11,12.11,0,0,1-1.23,5.74c-.93,1.63-2.83,2.72-4.31,4-1-1.79-2.7-3.57-2.75-5.39-.29-11.95-.23-23.91-.26-35.86,0-8.64,0-17.28,0-25.91Z"/><path class="cls-1" d="M417.61,76.81c0-19.61,0-39.22.05-58.83,0-2.39-1.12-6,3-6.17s4.5,3.35,4.57,6.37c.2,8.14.25,16.28.27,24.42.06,29.91.13,59.81.06,89.72a42.16,42.16,0,0,1-1.43,9.77,3.72,3.72,0,0,1-2.89,2.09,3.9,3.9,0,0,1-2.78-2.23,16.91,16.91,0,0,1-1-5.83c-.07-19.77,0-39.54,0-59.31Z"/><path class="cls-1" d="M433.57,76.51c0-20,0-39.89,0-59.83,0-4.68,2.84-6.91,6-4.63,1.36,1,2.11,3.65,2.09,5.54-.18,17.11-.84,34.22-.89,51.34-.07,21.43.37,42.87.42,64.3a31.11,31.11,0,0,1-1.59,8.71,2.82,2.82,0,0,1-5.52-.29,49.4,49.4,0,0,1-1.22-9.82c-.11-18.44-.05-36.88-.05-55.32Z"/><path class="cls-1" d="M410.3,77c0,19.25,0,38.51,0,57.77,0,3.37.49,8.48-3.59,8.58-4.36.12-4.39-4.9-4.39-8.56q.06-58.52.15-117c0-2.71-.1-5.76,3.7-5.83s4.54,2.65,4.41,5.82c0,1,0,2,0,3V77Z"/><path class="cls-1" d="M372.8,76.77q0-27.37,0-54.76c0-2-.36-4.1.17-5.94.46-1.59,2-2.88,3-4.3,1.18,1.35,3.29,2.64,3.39,4.08.59,7.93.88,15.91.93,23.87q.24,46.56.25,93.12a22.62,22.62,0,0,1-1,7.3c-.44,1.26-2.28,2.84-3.46,2.82s-2.71-1.75-3.23-3.06c-.63-1.61-.49-3.57-.5-5.38q0-28.88,0-57.75Z"/><path class="cls-1" d="M365.52,77c0,19.27.14,38.54-.15,57.81,0,2.71-2.41,7.79-3.3,7.7-4.49-.44-3.75-4.75-3.73-7.85.22-29.9.69-59.81.89-89.71.06-9-.57-17.93-.75-26.89-.05-2.48-1-5.91,3.19-6s4,3.28,4,6.11q.06,29.4,0,58.8Z"/><path class="cls-1" d="M345.27,76.46q0-27.13,0-54.27c0-2-.26-4.1.33-5.93.52-1.64,2-3,3.11-4.42,1,1.45,2.73,2.81,2.93,4.36a117.69,117.69,0,0,1,1,14.89q.12,50.55,0,101.09a22.67,22.67,0,0,1-1.45,7.72c-.37,1-2.34,1.88-3.59,1.9-.78,0-2.07-1.61-2.28-2.67a37.41,37.41,0,0,1-.65-7.41q-.06-27.63,0-55.26Z"/><path class="cls-1" d="M339.31,76.81q0,27.89,0,55.75a37.15,37.15,0,0,1-.38,6.93,3.7,3.7,0,0,1-2.39,2.55,3.85,3.85,0,0,1-2.94-2,13.38,13.38,0,0,1-1-5.3q-.07-58.74,0-117.5c0-1.16-.14-2.5.37-3.42a5.88,5.88,0,0,1,2.93-2.7c.54-.16,2,1.46,2.45,2.52a12.93,12.93,0,0,1,.44,4.42q0,29.37,0,58.75Z"/><path class="cls-1" d="M42.07,22.77c-.08,4.71-4.36,8.94-9,8.85-4-.07-7.24-4-7.12-8.59a7.19,7.19,0,0,1,7.59-7.4C38.45,15.63,42.14,18.74,42.07,22.77Z"/><path class="cls-1" d="M110.71,15.49c4.56,0,7.59,2.59,7.63,6.59,0,3.56-5.38,9.25-9,9.42-3,.14-7-4.52-7.17-8.33C102.07,18.86,105.76,15.52,110.71,15.49Z"/><path class="cls-1" d="M118.17,117.05c0,3.49-3.86,6.82-7.88,6.82-3.43,0-7.22-4.84-7.28-9.31a5.89,5.89,0,0,1,6.31-6.14C113.67,108.56,118.18,113,118.17,117.05Z"/><path class="cls-1" d="M42.3,117c-.07,3.83-3.8,6.81-8.32,6.64-4-.15-6.16-2.18-6.14-6.18,0-4.49,4-8.45,8.18-8.24C39.05,109.38,42.37,113.49,42.3,117Z"/><path class="cls-1" d="M73.31,87c-11-.39-19-9-16.24-18.32,1-3.39,4.57-6.07,7.12-8.94.73-.82,2-1.16,3-1.77,6.82-4.18,10-4.51,13.61-1.39,6.09,5.22,8.74,14.13,6.16,20.7C84.49,83.49,79.31,87.19,73.31,87Zm-1-7.43c3.66.07,8.27-4.31,8.65-8.36.42-4.62-3.46-4-6.1-4.78-1.6-.46-3.3-.57-4.86-1.1-3.5-1.19-5,.78-5.77,3.63C63,73.35,67.71,79.45,72.34,79.54Z"/></g></g></svg>