<svg xmlns="http://www.w3.org/2000/svg" viewBox="0 0 573.76 512"><defs><style>.cls-1{fill:#fff;}</style></defs><g id="Layer_2" data-name="Layer 2"><g id="Layer_1-2" data-name="Layer 1"><path class="cls-1" d="M96,0a24.08,24.08,0,0,1,23.6,19.51L121.1,32H541.8c20.3,0,36.5,20.25,30.8,40.66l-54,192A32,32,0,0,1,487.8,288H170.7l9.2,48H488a24,24,0,0,1,0,48H159.1c-10.6,0-20.5-8.2-22.7-19.5L76.14,48H24A24,24,0,0,1,24,0Zm32,464a48,48,0,1,1,48,48A48,48,0,0,1,128,464Zm384,0a48,48,0,1,1-48-48A48,48,0,0,1,512,464Z"/></g></g></svg>