<svg xmlns="http://www.w3.org/2000/svg" viewBox="0 0 449.58 300.44"><defs><style>.cls-1{fill:#fff;}</style></defs><g id="Layer_2" data-name="Layer 2"><g id="Layer_1-2" data-name="Layer 1"><path class="cls-1" d="M329.5,300.32H120.76c-.29-.37-.66-.63-.66-.88.48-21.74-2.15-43.59,1.83-65.19,8-43.41,44.8-78,88.59-83.54a9.1,9.1,0,0,0,3.31-1.19c-21-4-38-14.14-50.34-31.59s-16.4-37-12.23-57.81c7.49-37.41,41-62.37,79.76-60,35,2.18,65.6,32.56,68.41,68,3.07,38.6-22.55,74-64,81.78l8.93,1.73a104.52,104.52,0,0,1,85.09,103C329.52,269.72,329.5,284.81,329.5,300.32Z"/><path class="cls-1" d="M97.42,213.33c-10.76,28.58-6.46,57.77-7.63,86.8H.63c-2-21,.36-41.12,13.29-58.95,12.79-17.63,30.15-27.86,51.67-31.64-16.53-3.66-29.78-11.73-39.52-25.31A59.94,59.94,0,0,1,87,91c23.43,4.66,42.59,24.08,46.88,47.5.24,1.3.57,2.6.72,3.92.8,7.06.44,13.12-5.76,18.75A105.76,105.76,0,0,0,103,198c-2.14,5-5.16,7.76-10.23,8.85-2.9.63-5.73,1.55-9.92,2.7Z"/><path class="cls-1" d="M384.1,209c50,9.28,69.7,51.89,64.73,91.44H359.48c0-14.69.71-29.28-.21-43.77s-3.44-28.82-5.34-43.85l12.45-3.1c-5-1.55-9.27-2.52-13.22-4.23a10.5,10.5,0,0,1-5.14-4.71,142.53,142.53,0,0,0-30.23-43,11.65,11.65,0,0,1-3.09-7.3C313.83,120,337.89,92.9,368.2,90c30.9-2.94,59.4,18.15,65,48.12,6.18,32.77-14.19,63.14-47.24,70.44Z"/></g></g></svg>