<svg xmlns="http://www.w3.org/2000/svg" viewBox="0 0 288.01 512"><defs><style>.cls-1{fill:#fff;}</style></defs><g id="Layer_2" data-name="Layer 2"><g id="Layer_1-2" data-name="Layer 1"><path class="cls-1" d="M144,0a32,32,0,0,1,32,32V67.68c1.6.21,3.1.44,4.7.67,10.6,1.58,42.2,6.67,55.2,10,16.2,4.34,27.5,21.79,23.1,38.89a32.05,32.05,0,0,1-38.9,23.2c-9.3-3.3-37.6-7.1-48.8-8.7-32.1-4.8-59.6-2.4-78.5,4.8-18.28,7-25.87,16.9-27.88,28-1.94,10.7-.47,16.8,1.29,20.6,1.89,4,5.58,8.5,12.93,13.4,16.26,10.7,41.06,17.9,73.26,26.6l2.8.8c28.4,7.7,63.2,17.2,89,34.3,14.1,9.4,27.4,22.1,35.6,39.7,8.3,17.8,10.1,37.8,6.3,58.2-7,38.9-34,64.3-65.7,77.5a166.09,166.09,0,0,1-44.4,11V480a32,32,0,0,1-64,0V445.1c-.4,0-.9-1-1.3-.2h-.2c-24.3-3.8-64.43-14.3-91.5-26.3A32.06,32.06,0,0,1,2.77,376.3c7.18-16.1,26.09-23.4,41.34-16.2,21.8,9.3,56.2,18.4,76.1,21.5,32,4.8,58.3,2,76.1-5.2,16.9-6.9,24.6-16.9,26.8-28.9,1.9-10.7.5-16.8-1.3-20.6-1.9-4-5.6-8.5-12.9-13.4-16.3-10.7-41.1-17.9-73.3-26.6l-2.8-.8c-28.4-7.7-63.22-17.2-89-34.3-14.11-9.4-27.33-22.1-35.54-39.7C-.1,194.3-1.91,174.3,2,153,9,114.1,37.06,89.29,70,76.73a175.55,175.55,0,0,1,42-10V32A32,32,0,0,1,144,0Z"/></g></g></svg>