<svg xmlns="http://www.w3.org/2000/svg" viewBox="0 0 319.98 512"><defs><style>.cls-1{fill:#fff;}</style></defs><g id="Layer_2" data-name="Layer 2"><g id="Layer_1-2" data-name="Layer 1"><path class="cls-1" d="M315.1,271,244.54,158.9A62.65,62.65,0,0,0,190.3,128H129.7a63.61,63.61,0,0,0-54.28,30.09L4.87,271a32,32,0,1,0,54.25,33.9L88,258.72,87.1,480a32,32,0,0,0,32,32c17.67,0,31.1-14.33,31.1-32V336h16V480a32,32,0,0,0,64,0V258.8L259.08,305c7.82,9.7,18.32,15,28.92,15a32,32,0,0,0,27.1-49ZM160,96a48,48,0,1,0-48-48A48,48,0,0,0,160,96Z"/></g></g></svg>