<svg xmlns="http://www.w3.org/2000/svg" viewBox="0 0 384 512"><defs><style>.cls-1{fill:#fff;}</style></defs><g id="Layer_2" data-name="Layer 2"><g id="Layer_1-2" data-name="Layer 1"><path class="cls-1" d="M256,0V128H384Zm32,256H96v64H288ZM224,128V0H48A48,48,0,0,0,0,48V464a48,48,0,0,0,48,48H336a48,48,0,0,0,48-48V160H256.9C238.3,160,224,145.7,224,128ZM64,72a8.06,8.06,0,0,1,8-8h80a8,8,0,0,1,8,8V88a8,8,0,0,1-8,8H72a8.06,8.06,0,0,1-8-8Zm0,64a8,8,0,0,1,8-8h80a8,8,0,0,1,8,8v16a8,8,0,0,1-8,8H72a8,8,0,0,1-8-8ZM320,440a8,8,0,0,1-8,8H232a8,8,0,0,1-8-8V424a8,8,0,0,1,8-8h80a8,8,0,0,1,8,8Zm0-200v96a15.94,15.94,0,0,1-16,16H80a15.94,15.94,0,0,1-16-16V240a15.94,15.94,0,0,1,16-16H304A15.92,15.92,0,0,1,320,240Z"/></g></g></svg>