<svg xmlns="http://www.w3.org/2000/svg" viewBox="0 0 384 512"><defs><style>.cls-1{fill:#fff;}</style></defs><g id="Layer_2" data-name="Layer 2"><g id="Layer_1-2" data-name="Layer 1"><path class="cls-1" d="M384,128H256V0ZM256,160H384V464a48,48,0,0,1-48,48H48A48,48,0,0,1,0,464V48A48,48,0,0,1,48,0H224V128A32,32,0,0,0,256,160ZM64,88a8.06,8.06,0,0,0,8,8h80a8,8,0,0,0,8-8V72a8,8,0,0,0-8-8H72a8.06,8.06,0,0,0-8,8Zm8,72h80a8,8,0,0,0,8-8V136a8,8,0,0,0-8-8H72a8,8,0,0,0-8,8v16A8,8,0,0,0,72,160ZM197.5,316.8l-6.4-1.6c-22.8-7-22.3-11.1-21.5-14.7,1.38-7.81,16.59-9.72,30.27-7.62a103.28,103.28,0,0,1,17.59,4.84,20,20,0,0,0,13.12-37.81A160.87,160.87,0,0,0,212,254.64V248a20,20,0,0,0-40,0v6C149.6,258.8,133.8,272.8,130.2,293.7c-7.41,42.84,33.19,54.75,50.52,59.84l5.81,1.69c29.28,8.37,28.8,11.19,27.92,16.28-1.37,7.81-16.59,9.75-30.31,7.62-6.94-1-15.81-4.22-23.66-7L156,370.48a20,20,0,0,0-13.32,37.75l4.27,1.5A208,208,0,0,0,172,417.24V424a20,20,0,0,0,40,0v-6.25c22.36-4.8,38.21-18.53,41.83-39.43C261.3,335,219.8,323.1,197.5,316.8Z"/></g></g></svg>