<svg xmlns="http://www.w3.org/2000/svg" viewBox="0 0 512 512"><defs><style>.cls-1{fill:#fff;}</style></defs><g id="Layer_2" data-name="Layer 2"><g id="Layer_1-2" data-name="Layer 1"><path class="cls-1" d="M152,0h2.2a90.2,90.2,0,0,1,77.7,44.45l24.1,41,24.1-41A90.2,90.2,0,0,1,357.8,0H360a88,88,0,0,1,88,88c0,14.4-3.5,27.1-9.6,40H480a32,32,0,0,1,32,32v64a32,32,0,0,1-32,32H32A32,32,0,0,1,0,224V160a32,32,0,0,1,32-32H73.6C67.46,115.1,64,102.4,64,88A88,88,0,0,1,152,0Zm38.5,68.78A42.19,42.19,0,0,0,154.2,48H152a40,40,0,0,0,0,80h73.3ZM360,48h-2.2a42.19,42.19,0,0,0-36.3,20.78L286.7,128H360a40,40,0,0,0,0-80ZM32,288H224V512H80a48,48,0,0,1-48-48ZM288,512V288H480V464a48,48,0,0,1-48,48Z"/></g></g></svg>