<svg xmlns="http://www.w3.org/2000/svg" viewBox="0 0 575.98 512"><defs><style>.cls-1{fill:#fff;}</style></defs><g id="Layer_2" data-name="Layer 2"><g id="Layer_1-2" data-name="Layer 1"><path class="cls-1" d="M575.8,255.5a32.31,32.31,0,0,1-32,32.1h-32l.7,160.1a71.89,71.89,0,0,1-.5,8.1V472a40,40,0,0,1-40,40H456c-1.1,0-2.2-.9-3.3-.1-1.4-.8-2.8.1-4.2.1H392a40,40,0,0,1-40-40V384a32,32,0,0,0-32-32H256a32,32,0,0,0-32,32v88a40,40,0,0,1-40,40H128.1c-1.5,0-3-.1-4.5-.2-1.2.1-2.4.2-3.6.2H104a40,40,0,0,1-40-40V360c0-.9,0-1.9.09-2.8V287.6h-32A31.7,31.7,0,0,1,0,255.5a32.47,32.47,0,0,1,10-24L266.4,8c7-7,15-8,22-8s15,2,21.1,7L564.8,231.5c8,7,12.1,15,11,24Z"/></g></g></svg>