<svg xmlns="http://www.w3.org/2000/svg" viewBox="0 0 60.19 60.14"><defs><style>.cls-1{fill:#fff;}</style></defs><g id="Layer_2" data-name="Layer 2"><g id="Layer_1-2" data-name="Layer 1"><path class="cls-1" d="M30.09,13.68h-23A6.83,6.83,0,0,1,5.69.13,9.86,9.86,0,0,1,7.22,0H53a6.84,6.84,0,1,1,.53,13.67c-7.81,0-15.62,0-23.43,0Z"/><path class="cls-1" d="M30.09,46.46H53.14A6.83,6.83,0,0,1,54.45,60a14.06,14.06,0,0,1-1.72.11H7.22a6.86,6.86,0,0,1-7-5.32,6.8,6.8,0,0,1,6.5-8.35C14.52,46.45,22.31,46.46,30.09,46.46Z"/><path class="cls-1" d="M30.1,36.91c-7.59,0-15.19,0-22.78,0a6.85,6.85,0,0,1-6.19-3.18,6.46,6.46,0,0,1-.27-6.87A6.65,6.65,0,0,1,7,23.23H8.37q22.23,0,44.48,0a6.92,6.92,0,0,1,5.5,2.25,6.46,6.46,0,0,1,1.29,7.13,6.47,6.47,0,0,1-5.86,4.26c-.78.07-1.58,0-2.36,0Z"/></g></g></svg>