<svg xmlns="http://www.w3.org/2000/svg" viewBox="0 0 350.24 354.57"><defs><style>.cls-1{fill:#fff;}</style></defs><g id="Layer_2" data-name="Layer 2"><g id="Layer_1-2" data-name="Layer 1"><path class="cls-1" d="M209.81,354.57H1.08c-.29-.37-.67-.63-.66-.88C.89,332-1.74,310.11,2.25,288.5c8-43.41,44.8-78,88.58-83.53a9,9,0,0,0,3.31-1.19c-21-4.05-38-14.15-50.34-31.6s-16.39-37-12.22-57.8c7.49-37.42,41-62.38,79.75-60,35,2.18,65.6,32.57,68.42,68,3.06,38.6-22.56,74-64,81.79l8.93,1.72a104.54,104.54,0,0,1,85.09,103C209.83,324,209.81,339.07,209.81,354.57Z"/><path class="cls-1" d="M350,18.26l-89.82,144.3-4.76,1.16a15.11,15.11,0,0,1-18.46-11.45l-19.06-85.7a15.84,15.84,0,0,1,11.7-18.79A15.15,15.15,0,0,1,248,59.27L259,108.35,321.75,7.47a15.52,15.52,0,0,1,21.32-5.19A15.38,15.38,0,0,1,350,18.26Z"/></g></g></svg>