<svg xmlns="http://www.w3.org/2000/svg" viewBox="0 0 375.78 377.99"><defs><style>.cls-1{fill:#fff;}</style></defs><g id="Layer_2" data-name="Layer 2"><g id="Layer_1-2" data-name="Layer 1"><path class="cls-1" d="M187.31,375.39c-6.1,0-12.32.73-18.29-.15-14-2.06-21-13.8-22.06-32.55-.5-8.67,5.27-19.28-6.66-25.68-11.71-6.3-20.32-6.61-30.47,4.61-20.65,22.84-31.42,22.14-53.06.34-3.38-3.41-6.76-6.82-10-10.34-13.65-14.76-13.43-26.3.72-41,2.42-2.51,4.93-4.94,7.41-7.4,5.53-5.51,11.59-10,6.8-20-4.6-9.55-8-18.31-21.25-16.24-5.53.86-11.35.33-17-.17C9.3,225.6,1.08,217.37.38,203.22c-.53-10.45-.47-21,0-31.41C1,156.46,9.61,148,25.16,147c5.22-.35,10.56-.73,15.69,0,10.49,1.43,15.35-3.38,19.57-12.66,4.39-9.66,3.6-16.27-4.7-22.6-3.43-2.61-6.18-6.14-9.16-9.32-12.81-13.66-13.22-25.38-.71-39a258.86,258.86,0,0,1,21.59-21c10.38-9,22.8-8.56,33.11.55a102,102,0,0,1,12.09,12c6.14,7.61,12.35,8.21,21.65,4.8,10.6-3.89,14.2-9.72,13.05-20.31a73.09,73.09,0,0,1,.3-17C149.43,8.38,158,.67,172.16.22c10-.32,20.08-.25,30.11,0,15.88.32,24.17,7.72,26.1,23.37.58,4.74.35,9.58.37,14.38,0,8.57-1.28,16.33,10.34,20.78,11.18,4.28,18.41,3.82,26.1-5.44,4.92-5.92,11-12.11,17.83-15,20.12-8.38,29.77,8.65,41.6,19.44,10,9.11,19.47,19.68,12.19,34-4.39,8.64-12.24,15.76-19.42,22.65-5.86,5.61-6.1,10.77-2.54,17.36,3.76,6.95,4.56,15.12,16.3,15.37,43.54.93,44.69,2.6,44.64,45.55,0,27.9-6.64,35-35,34.22-13.31-.37-23.77,1.59-26,16.47-.76,5.12.22,11.52,2.85,15.85,3.54,5.81,9.72,9.93,14.27,15.21,9.38,10.86,9.89,22.27.69,33.14a226.09,226.09,0,0,1-22.92,23.3c-10.55,9.34-23.75,9.06-34.46.05a90.46,90.46,0,0,1-10.32-10c-6.39-7.43-12.09-11.54-23.36-6.71s-13.67,11.27-13,22c.77,12.22,1.89,26.13-10.27,33.16-8.85,5.11-20.18,5.92-30.41,8.65C187.72,377.12,187.51,376.25,187.31,375.39ZM188,128.65c-31.52,0-58.21,27-58.16,58.75,0,31.3,25.93,57.39,57.48,57.95s58.52-25.92,58.8-57.94C246.4,155.85,219.49,128.65,188,128.65Z"/></g></g></svg>