<svg xmlns="http://www.w3.org/2000/svg" viewBox="0 0 641 450.3"><defs><style>.cls-1{fill:#fff;}</style></defs><g id="Layer_2" data-name="Layer 2"><g id="Layer_1-2" data-name="Layer 1"><path class="cls-1" d="M21.25,2C28.29,2,34,12.77,34,26V426c0,13.3-5.71,24-12.75,24h-8.5C5.71,450,0,439.32,0,426V26C0,12.77,5.71,2,12.75,2Z"/><path class="cls-1" d="M68,18.3v416c0,8.8-3.82,16-8.5,16s-8.5-7.2-8.5-16V18.3c0-8.84,3.82-16,8.5-16S68,9.46,68,18.3Z"/><path class="cls-1" d="M150,16.77v416c0,8.8-3.82,16-8.5,16s-8.5-7.2-8.5-16v-416c0-8.84,3.82-16,8.5-16S150,7.93,150,16.77Z"/><path class="cls-1" d="M105.25,2C112.32,2,118,12.77,118,26V426c0,13.3-5.68,24-12.75,24h-8.5C89.68,450,84,439.32,84,426V26C84,12.77,89.68,2,96.75,2Z"/><path class="cls-1" d="M181.25,2C188.32,2,194,12.77,194,26V426c0,13.3-5.68,24-12.75,24h-8.5c-7.07,0-12.75-10.7-12.75-24V26c0-13.25,5.68-24,12.75-24Z"/><path class="cls-1" d="M280,26c0-13.25,5.68-24,12.75-24h8.5C308.32,2,314,12.77,314,26V426c0,13.3-5.68,24-12.75,24h-8.5c-7.07,0-12.75-10.7-12.75-24Z"/><path class="cls-1" d="M208,18.3c0-8.84,3.83-16,8.5-16s8.5,7.16,8.5,16v416c0,8.8-3.83,16-8.5,16s-8.5-7.2-8.5-16Z"/><path class="cls-1" d="M243,16c0-8.84,3.83-16,8.5-16S260,7.16,260,16V432c0,8.8-3.83,16-8.5,16s-8.5-7.2-8.5-16Z"/><path class="cls-1" d="M348.25,2c7,0,12.75,10.75,12.75,24V426c0,13.3-5.71,24-12.75,24h-8.5c-7,0-12.75-10.7-12.75-24V26c0-13.25,5.71-24,12.75-24Z"/><path class="cls-1" d="M394,18.3v416c0,8.8-3.82,16-8.5,16s-8.5-7.2-8.5-16V18.3c0-8.84,3.82-16,8.5-16S394,9.46,394,18.3Z"/><path class="cls-1" d="M476,16.77v416c0,8.8-3.82,16-8.5,16s-8.5-7.2-8.5-16v-416c0-8.84,3.82-16,8.5-16S476,7.93,476,16.77Z"/><path class="cls-1" d="M432.25,2C439.32,2,445,12.77,445,26V426c0,13.3-5.68,24-12.75,24h-8.5c-7.07,0-12.75-10.7-12.75-24V26c0-13.25,5.68-24,12.75-24Z"/><path class="cls-1" d="M507.25,2C514.32,2,520,12.77,520,26V426c0,13.3-5.68,24-12.75,24h-8.5c-7.07,0-12.75-10.7-12.75-24V26c0-13.25,5.68-24,12.75-24Z"/><path class="cls-1" d="M607,26c0-13.25,5.68-24,12.75-24h8.5C635.32,2,641,12.77,641,26V426c0,13.3-5.68,24-12.75,24h-8.5c-7.07,0-12.75-10.7-12.75-24Z"/><path class="cls-1" d="M534,18.3c0-8.84,3.83-16,8.5-16s8.5,7.16,8.5,16v416c0,8.8-3.83,16-8.5,16s-8.5-7.2-8.5-16Z"/><path class="cls-1" d="M569,16c0-8.84,3.83-16,8.5-16S586,7.16,586,16V432c0,8.8-3.83,16-8.5,16s-8.5-7.2-8.5-16Z"/></g></g></svg>