<svg xmlns="http://www.w3.org/2000/svg" viewBox="0 0 512 384"><defs><style>.cls-1{fill:#fff;}</style></defs><g id="Layer_2" data-name="Layer 2"><g id="Layer_1-2" data-name="Layer 1"><path class="cls-1" d="M256,288a76.42,76.42,0,0,1-47.16-16.41L0,109.2V336a48,48,0,0,0,48,48H464a48,48,0,0,0,48-48V109.2L303.2,271.7A77,77,0,0,1,256,288ZM16.29,81.3l212.2,165.1a44.83,44.83,0,0,0,55.06,0L495.75,81.3C505.1,73.3,512,61,512,48A48,48,0,0,0,464,0H48A48,48,0,0,0,0,48,42.22,42.22,0,0,0,16.29,81.3Z"/></g></g></svg>